G04 ================== begin FILE IDENTIFICATION RECORD ==================*
G04 Layout Name:  C:/Users/abcd/Documents/GitHub/sophum_esc_v2/PCB/sophum_esc_v2.brd*
G04 Film Name:    ADT*
G04 File Format:  Gerber RS274X*
G04 File Origin:  Cadence Allegro 16.6-2015-S066*
G04 Origin Date:  Sat Jan 11 17:17:42 2020*
G04 *
G04 Layer:  PIN/TOP*
G04 Layer:  REF DES/SILKSCREEN_TOP*
G04 Layer:  PACKAGE GEOMETRY/SILKSCREEN_TOP*
G04 Layer:  BOARD GEOMETRY/SILKSCREEN_TOP*
G04 Layer:  BOARD GEOMETRY/OUTLINE*
G04 *
G04 Offset:    (0.00 0.00)*
G04 Mirror:    No*
G04 Mode:      Positive*
G04 Rotation:  0*
G04 FullContactRelief:  No*
G04 UndefLineWidth:     6.00*
G04 ================== end FILE IDENTIFICATION RECORD ====================*
%FSLAX25Y25*MOIN*%
%IR0*IPPOS*OFA0.00000B0.00000*MIA0B0*SFA1.00000B1.00000*%
%ADD18R,.02008X.02008*%
%ADD16R,.01181X.01181*%
%ADD12C,.06299*%
%ADD14R,.07087X.07087*%
%ADD13R,.06299X.06299*%
%ADD11R,.04331X.02362*%
%ADD15R,.01181X.03543*%
%ADD17R,.03543X.01181*%
%ADD19R,.04488X.05*%
%ADD10R,.02559X.01969*%
%ADD20C,.006*%
%ADD21C,.00591*%
G75*
%LPD*%
G75*
G54D10*
X28449Y30341D03*
Y35459D03*
X76349Y30341D03*
X52749D03*
X82451Y32900D03*
X76349Y35459D03*
X34551Y32900D03*
X58851D03*
X52749Y35459D03*
G54D20*
G01X3100Y45387D02*
X5600D01*
Y44853D01*
X5475Y44640D01*
X5308Y44480D01*
X5058Y44347D01*
X4767Y44240D01*
X4350Y44213D01*
X3933Y44240D01*
X3642Y44347D01*
X3392Y44480D01*
X3225Y44640D01*
X3100Y44853D01*
Y45387D01*
G01Y42067D02*
Y43133D01*
X5600D01*
Y42067D01*
G01X4392Y42493D02*
Y43133D01*
G01X3433Y40960D02*
X3225Y40747D01*
X3100Y40507D01*
Y40293D01*
X3225Y40080D01*
X3433Y39920D01*
X3725Y39840D01*
X4017Y39893D01*
X4267Y40027D01*
X4433Y40267D01*
X4517Y40587D01*
X4683Y40773D01*
X4975Y40853D01*
X5267Y40800D01*
X5475Y40667D01*
X5600Y40480D01*
Y40293D01*
X5517Y40107D01*
X5308Y39947D01*
G01X5600Y38520D02*
Y37880D01*
G01Y38200D02*
X3100D01*
G01Y38520D02*
Y37880D01*
G01X4350Y35840D02*
Y35307D01*
X3600D01*
X3350Y35467D01*
X3183Y35653D01*
X3100Y35920D01*
X3183Y36187D01*
X3350Y36373D01*
X3600Y36533D01*
X3892Y36640D01*
X4225Y36693D01*
X4517D01*
X4767Y36640D01*
X5058Y36533D01*
X5308Y36373D01*
X5475Y36213D01*
X5600Y36000D01*
Y35813D01*
X5517Y35600D01*
X5350Y35440D01*
G01X3100Y34413D02*
X5600D01*
X3100Y33187D01*
X5600D01*
G01X3100Y31067D02*
Y32133D01*
X5600D01*
Y31067D01*
G01X4392Y31493D02*
Y32133D01*
G01X3100Y29987D02*
X5600D01*
Y29453D01*
X5475Y29240D01*
X5308Y29080D01*
X5058Y28947D01*
X4767Y28840D01*
X4350Y28813D01*
X3933Y28840D01*
X3642Y28947D01*
X3392Y29080D01*
X3225Y29240D01*
X3100Y29453D01*
Y29987D01*
G01X4433Y24787D02*
X4558Y24680D01*
X4767Y24600D01*
X5058Y24547D01*
X5308Y24600D01*
X5475Y24707D01*
X5600Y24893D01*
Y25613D01*
X3100D01*
Y24733D01*
X3267Y24547D01*
X3517Y24440D01*
X3808Y24387D01*
X4100Y24440D01*
X4350Y24600D01*
X4433Y24787D01*
Y25613D01*
G01X3100Y22800D02*
X4225D01*
X5600Y23333D01*
G01Y22267D02*
X4225Y22800D01*
G01X3100Y19093D02*
X5600D01*
X3517Y18400D01*
X5600Y17707D01*
X3100D01*
G01Y16867D02*
X5600Y16200D01*
X3100Y15533D01*
G01X3975Y15773D02*
Y16627D01*
G01X3100Y14587D02*
X5600D01*
G01Y13573D02*
X4058Y14587D01*
G01X3100Y13413D02*
X4767Y14133D01*
G01X3433Y12360D02*
X3225Y12147D01*
X3100Y11907D01*
Y11693D01*
X3225Y11480D01*
X3433Y11320D01*
X3725Y11240D01*
X4017Y11293D01*
X4267Y11427D01*
X4433Y11667D01*
X4517Y11987D01*
X4683Y12173D01*
X4975Y12253D01*
X5267Y12200D01*
X5475Y12067D01*
X5600Y11880D01*
Y11693D01*
X5517Y11507D01*
X5308Y11347D01*
G01X3100Y9600D02*
X4225D01*
X5600Y10133D01*
G01Y9067D02*
X4225Y9600D01*
G01X5600Y7987D02*
X3808D01*
X3433Y7880D01*
X3183Y7667D01*
X3100Y7400D01*
X3183Y7133D01*
X3433Y6920D01*
X3808Y6813D01*
X5600D01*
G01X3100Y5787D02*
X5600D01*
G01Y4773D02*
X4058Y5787D01*
G01X3100Y4613D02*
X4767Y5333D01*
G01X5600Y3320D02*
Y2680D01*
G01Y3000D02*
X3100D01*
G01Y3320D02*
Y2680D01*
G01X10950Y87940D02*
Y87407D01*
X10200D01*
X9950Y87567D01*
X9783Y87753D01*
X9700Y88020D01*
X9783Y88287D01*
X9950Y88473D01*
X10200Y88633D01*
X10492Y88740D01*
X10825Y88793D01*
X11117D01*
X11367Y88740D01*
X11658Y88633D01*
X11908Y88473D01*
X12075Y88313D01*
X12200Y88100D01*
Y87913D01*
X12117Y87700D01*
X11950Y87540D01*
G01X9700Y86513D02*
X12200D01*
X9700Y85287D01*
X12200D01*
G01X9700Y84287D02*
X12200D01*
Y83753D01*
X12075Y83540D01*
X11908Y83380D01*
X11658Y83247D01*
X11367Y83140D01*
X10950Y83113D01*
X10533Y83140D01*
X10242Y83247D01*
X9992Y83380D01*
X9825Y83540D01*
X9700Y83753D01*
Y84287D01*
G01X9800Y78887D02*
X9508Y78727D01*
X9342Y78513D01*
X9300Y78273D01*
X9342Y78060D01*
X9550Y77847D01*
X9800Y77713D01*
X10050Y77687D01*
X10342Y77740D01*
X10550Y77927D01*
X10633Y78113D01*
Y78353D01*
G01Y78113D02*
X10758Y77953D01*
X10967Y77820D01*
X11217Y77767D01*
X11467Y77820D01*
X11675Y77953D01*
X11800Y78193D01*
X11758Y78433D01*
X11592Y78673D01*
G01X11800Y76767D02*
X9300Y76100D01*
X11800Y75433D01*
G01X9800Y74487D02*
X9508Y74327D01*
X9342Y74113D01*
X9300Y73873D01*
X9342Y73660D01*
X9550Y73447D01*
X9800Y73313D01*
X10050Y73287D01*
X10342Y73340D01*
X10550Y73527D01*
X10633Y73713D01*
Y73953D01*
G01Y73713D02*
X10758Y73553D01*
X10967Y73420D01*
X11217Y73367D01*
X11467Y73420D01*
X11675Y73553D01*
X11800Y73793D01*
X11758Y74033D01*
X11592Y74273D01*
G01X11392Y68613D02*
X11517Y68773D01*
X11600Y68960D01*
Y69173D01*
X11475Y69413D01*
X11267Y69600D01*
X11017Y69733D01*
X10600Y69840D01*
X10225Y69867D01*
X9850Y69813D01*
X9600Y69733D01*
X9350Y69573D01*
X9183Y69387D01*
X9100Y69200D01*
Y69013D01*
X9183Y68827D01*
X9308Y68667D01*
X9475Y68533D01*
G01X11183Y67507D02*
X11433Y67347D01*
X11558Y67160D01*
X11600Y66947D01*
X11517Y66680D01*
X11308Y66493D01*
X11058Y66440D01*
X10808Y66467D01*
X10600Y66573D01*
X10183Y67107D01*
X9892Y67347D01*
X9475Y67507D01*
X9100Y67560D01*
Y66440D01*
G01X11392Y64213D02*
X11517Y64373D01*
X11600Y64560D01*
Y64773D01*
X11475Y65013D01*
X11267Y65200D01*
X11017Y65333D01*
X10600Y65440D01*
X10225Y65467D01*
X9850Y65413D01*
X9600Y65333D01*
X9350Y65173D01*
X9183Y64987D01*
X9100Y64800D01*
Y64613D01*
X9183Y64427D01*
X9308Y64267D01*
X9475Y64133D01*
G01X9100Y63187D02*
X11600D01*
G01Y62173D02*
X10058Y63187D01*
G01X9100Y62013D02*
X10767Y62733D01*
G01X11292Y57913D02*
X11417Y58073D01*
X11500Y58260D01*
Y58473D01*
X11375Y58713D01*
X11167Y58900D01*
X10917Y59033D01*
X10500Y59140D01*
X10125Y59167D01*
X9750Y59113D01*
X9500Y59033D01*
X9250Y58873D01*
X9083Y58687D01*
X9000Y58500D01*
Y58313D01*
X9083Y58127D01*
X9208Y57967D01*
X9375Y57833D01*
G01X11083Y56807D02*
X11333Y56647D01*
X11458Y56460D01*
X11500Y56247D01*
X11417Y55980D01*
X11208Y55793D01*
X10958Y55740D01*
X10708Y55767D01*
X10500Y55873D01*
X10083Y56407D01*
X9792Y56647D01*
X9375Y56807D01*
X9000Y56860D01*
Y55740D01*
G01Y54687D02*
X11500D01*
Y54153D01*
X11375Y53940D01*
X11208Y53780D01*
X10958Y53647D01*
X10667Y53540D01*
X10250Y53513D01*
X9833Y53540D01*
X9542Y53647D01*
X9292Y53780D01*
X9125Y53940D01*
X9000Y54153D01*
Y54687D01*
G01X8433Y125287D02*
X8558Y125180D01*
X8767Y125100D01*
X9058Y125047D01*
X9308Y125100D01*
X9475Y125207D01*
X9600Y125393D01*
Y126113D01*
X7100D01*
Y125233D01*
X7267Y125047D01*
X7517Y124940D01*
X7808Y124887D01*
X8100Y124940D01*
X8350Y125100D01*
X8433Y125287D01*
Y126113D01*
G01X7100Y123967D02*
X9600Y123300D01*
X7100Y122633D01*
G01X7975Y122873D02*
Y123727D01*
G01X9600Y121100D02*
X7100D01*
G01X9600Y121713D02*
Y120487D01*
G01X7933Y119193D02*
Y118553D01*
G01X8475Y118900D02*
X7392D01*
G01X16825Y92978D02*
X19925D01*
X19305Y93438D01*
G01X16825D02*
Y92518D01*
G01X24500Y90333D02*
X24250Y90200D01*
X24083Y90040D01*
X24000Y89853D01*
X24083Y89640D01*
X24250Y89480D01*
X24500Y89320D01*
X24833Y89267D01*
X26500D01*
G01X24000Y87600D02*
X26500D01*
X26000Y87920D01*
G01X24000D02*
Y87280D01*
G01X25100Y72533D02*
X27600D01*
Y71867D01*
X27475Y71653D01*
X27308Y71520D01*
X26975Y71467D01*
X26642Y71520D01*
X26433Y71680D01*
X26308Y71867D01*
Y72533D01*
G01Y71867D02*
X25100Y71467D01*
G01Y69800D02*
X27600D01*
X27100Y70120D01*
G01X25100D02*
Y69480D01*
G01X27183Y68107D02*
X27433Y67947D01*
X27558Y67760D01*
X27600Y67547D01*
X27517Y67280D01*
X27308Y67093D01*
X27058Y67040D01*
X26808Y67067D01*
X26600Y67173D01*
X26183Y67707D01*
X25892Y67947D01*
X25475Y68107D01*
X25100Y68160D01*
Y67040D01*
G01X38200Y34100D02*
X38242Y34313D01*
X38408Y34500D01*
X38658Y34660D01*
X38950Y34767D01*
X39283Y34820D01*
X39617D01*
X39950Y34767D01*
X40242Y34660D01*
X40492Y34500D01*
X40658Y34313D01*
X40700Y34100D01*
X40658Y33887D01*
X40492Y33700D01*
X40242Y33540D01*
X39950Y33433D01*
X39617Y33380D01*
X39283D01*
X38950Y33433D01*
X38658Y33540D01*
X38408Y33700D01*
X38242Y33887D01*
X38200Y34100D01*
G01X38867Y33887D02*
X38200Y33567D01*
G01Y31580D02*
X40700D01*
X38908Y32567D01*
Y31233D01*
G01X93167Y97030D02*
X92750Y96523D01*
X92500Y95953D01*
Y95447D01*
X92750Y94940D01*
X93167Y94560D01*
X93750Y94370D01*
X94333Y94497D01*
X94833Y94813D01*
X95167Y95383D01*
X95333Y96143D01*
X95667Y96587D01*
X96250Y96777D01*
X96833Y96650D01*
X97250Y96333D01*
X97500Y95890D01*
Y95447D01*
X97333Y95003D01*
X96917Y94623D01*
G01X92500Y90600D02*
X92583Y91107D01*
X92917Y91550D01*
X93417Y91930D01*
X94000Y92183D01*
X94667Y92310D01*
X95333D01*
X96000Y92183D01*
X96583Y91930D01*
X97083Y91550D01*
X97417Y91107D01*
X97500Y90600D01*
X97417Y90093D01*
X97083Y89650D01*
X96583Y89270D01*
X96000Y89017D01*
X95333Y88890D01*
X94667D01*
X94000Y89017D01*
X93417Y89270D01*
X92917Y89650D01*
X92583Y90093D01*
X92500Y90600D01*
G01Y86767D02*
X97500D01*
Y85247D01*
X97250Y84740D01*
X96667Y84360D01*
X96000Y84233D01*
X95333Y84360D01*
X94833Y84677D01*
X94583Y85247D01*
Y86767D01*
G01X92500Y81730D02*
X97500D01*
G01Y79070D02*
X92500D01*
G01X95000D02*
Y81730D01*
G01X97500Y76693D02*
X93917D01*
X93167Y76440D01*
X92667Y75933D01*
X92500Y75300D01*
X92667Y74667D01*
X93167Y74160D01*
X93917Y73907D01*
X97500D01*
G01X92500Y71847D02*
X97500D01*
X93333Y70200D01*
X97500Y68553D01*
X92500D01*
G01X90833Y67000D02*
Y63200D01*
G01X92500Y58733D02*
Y61267D01*
X97500D01*
Y58733D01*
G01X95083Y59747D02*
Y61267D01*
G01X93167Y56230D02*
X92750Y55723D01*
X92500Y55153D01*
Y54647D01*
X92750Y54140D01*
X93167Y53760D01*
X93750Y53570D01*
X94333Y53697D01*
X94833Y54013D01*
X95167Y54583D01*
X95333Y55343D01*
X95667Y55787D01*
X96250Y55977D01*
X96833Y55850D01*
X97250Y55533D01*
X97500Y55090D01*
Y54647D01*
X97333Y54203D01*
X96917Y53823D01*
G01X97083Y48407D02*
X97333Y48787D01*
X97500Y49230D01*
Y49737D01*
X97250Y50307D01*
X96833Y50750D01*
X96333Y51067D01*
X95500Y51320D01*
X94750Y51383D01*
X94000Y51257D01*
X93500Y51067D01*
X93000Y50687D01*
X92667Y50243D01*
X92500Y49800D01*
Y49357D01*
X92667Y48913D01*
X92917Y48533D01*
X93250Y48217D01*
G01X90833Y46600D02*
Y42800D01*
G01X97500Y41183D02*
X92500Y39600D01*
X97500Y38017D01*
G01X96667Y35703D02*
X97167Y35323D01*
X97417Y34880D01*
X97500Y34373D01*
X97333Y33740D01*
X96917Y33297D01*
X96417Y33170D01*
X95917Y33233D01*
X95500Y33487D01*
X94667Y34753D01*
X94083Y35323D01*
X93250Y35703D01*
X92500Y35830D01*
Y33170D01*
G01X31333Y125760D02*
X31125Y125547D01*
X31000Y125307D01*
Y125093D01*
X31125Y124880D01*
X31333Y124720D01*
X31625Y124640D01*
X31917Y124693D01*
X32167Y124827D01*
X32333Y125067D01*
X32417Y125387D01*
X32583Y125573D01*
X32875Y125653D01*
X33167Y125600D01*
X33375Y125467D01*
X33500Y125280D01*
Y125093D01*
X33417Y124907D01*
X33208Y124747D01*
G01X33500Y123320D02*
Y122680D01*
G01Y123000D02*
X31000D01*
G01Y123320D02*
Y122680D01*
G01X32250Y120640D02*
Y120107D01*
X31500D01*
X31250Y120267D01*
X31083Y120453D01*
X31000Y120720D01*
X31083Y120987D01*
X31250Y121173D01*
X31500Y121333D01*
X31792Y121440D01*
X32125Y121493D01*
X32417D01*
X32667Y121440D01*
X32958Y121333D01*
X33208Y121173D01*
X33375Y121013D01*
X33500Y120800D01*
Y120613D01*
X33417Y120400D01*
X33250Y120240D01*
G01X67250Y125340D02*
Y124807D01*
X66500D01*
X66250Y124967D01*
X66083Y125153D01*
X66000Y125420D01*
X66083Y125687D01*
X66250Y125873D01*
X66500Y126033D01*
X66792Y126140D01*
X67125Y126193D01*
X67417D01*
X67667Y126140D01*
X67958Y126033D01*
X68208Y125873D01*
X68375Y125713D01*
X68500Y125500D01*
Y125313D01*
X68417Y125100D01*
X68250Y124940D01*
G01X66000Y123913D02*
X68500D01*
X66000Y122687D01*
X68500D01*
G01X66000Y121687D02*
X68500D01*
Y121153D01*
X68375Y120940D01*
X68208Y120780D01*
X67958Y120647D01*
X67667Y120540D01*
X67250Y120513D01*
X66833Y120540D01*
X66542Y120647D01*
X66292Y120780D01*
X66125Y120940D01*
X66000Y121153D01*
Y121687D01*
G01X92350Y125640D02*
Y125107D01*
X91600D01*
X91350Y125267D01*
X91183Y125453D01*
X91100Y125720D01*
X91183Y125987D01*
X91350Y126173D01*
X91600Y126333D01*
X91892Y126440D01*
X92225Y126493D01*
X92517D01*
X92767Y126440D01*
X93058Y126333D01*
X93308Y126173D01*
X93475Y126013D01*
X93600Y125800D01*
Y125613D01*
X93517Y125400D01*
X93350Y125240D01*
G01X91100Y124213D02*
X93600D01*
X91100Y122987D01*
X93600D01*
G01X91100Y121987D02*
X93600D01*
Y121453D01*
X93475Y121240D01*
X93308Y121080D01*
X93058Y120947D01*
X92767Y120840D01*
X92350Y120813D01*
X91933Y120840D01*
X91642Y120947D01*
X91392Y121080D01*
X91225Y121240D01*
X91100Y121453D01*
Y121987D01*
G01X65800Y83387D02*
X64008D01*
X63633Y83280D01*
X63383Y83067D01*
X63300Y82800D01*
X63383Y82533D01*
X63633Y82320D01*
X64008Y82213D01*
X65800D01*
G01X65383Y81107D02*
X65633Y80947D01*
X65758Y80760D01*
X65800Y80547D01*
X65717Y80280D01*
X65508Y80093D01*
X65258Y80040D01*
X65008Y80067D01*
X64800Y80173D01*
X64383Y80707D01*
X64092Y80947D01*
X63675Y81107D01*
X63300Y81160D01*
Y80040D01*
G01X29163Y117668D02*
Y115876D01*
X29270Y115501D01*
X29483Y115251D01*
X29750Y115168D01*
X30017Y115251D01*
X30230Y115501D01*
X30337Y115876D01*
Y117668D01*
G01X31950Y115168D02*
Y117668D01*
X31630Y117168D01*
G01Y115168D02*
X32270D01*
G01X86200Y34400D02*
X86242Y34613D01*
X86408Y34800D01*
X86658Y34960D01*
X86950Y35067D01*
X87283Y35120D01*
X87617D01*
X87950Y35067D01*
X88242Y34960D01*
X88492Y34800D01*
X88658Y34613D01*
X88700Y34400D01*
X88658Y34187D01*
X88492Y34000D01*
X88242Y33840D01*
X87950Y33733D01*
X87617Y33680D01*
X87283D01*
X86950Y33733D01*
X86658Y33840D01*
X86408Y34000D01*
X86242Y34187D01*
X86200Y34400D01*
G01X86867Y34187D02*
X86200Y33867D01*
G01X87242Y32707D02*
X87533Y32520D01*
X87700Y32360D01*
X87783Y32147D01*
X87700Y31960D01*
X87533Y31827D01*
X87283Y31720D01*
X86992Y31693D01*
X86742Y31720D01*
X86492Y31827D01*
X86283Y31987D01*
X86200Y32173D01*
X86283Y32387D01*
X86533Y32573D01*
X86908Y32680D01*
X87325Y32707D01*
X87867Y32653D01*
X88158Y32573D01*
X88450Y32440D01*
X88658Y32253D01*
X88700Y32067D01*
X88617Y31880D01*
X88408Y31747D01*
G01X62800Y34300D02*
X62842Y34513D01*
X63008Y34700D01*
X63258Y34860D01*
X63550Y34967D01*
X63883Y35020D01*
X64217D01*
X64550Y34967D01*
X64842Y34860D01*
X65092Y34700D01*
X65258Y34513D01*
X65300Y34300D01*
X65258Y34087D01*
X65092Y33900D01*
X64842Y33740D01*
X64550Y33633D01*
X64217Y33580D01*
X63883D01*
X63550Y33633D01*
X63258Y33740D01*
X63008Y33900D01*
X62842Y34087D01*
X62800Y34300D01*
G01X63467Y34087D02*
X62800Y33767D01*
G01X63175Y32687D02*
X62967Y32527D01*
X62842Y32340D01*
X62800Y32100D01*
X62883Y31860D01*
X63050Y31673D01*
X63342Y31540D01*
X63675Y31513D01*
X64008Y31567D01*
X64217Y31700D01*
X64383Y31887D01*
X64425Y32073D01*
X64383Y32260D01*
X64217Y32500D01*
X65300Y32420D01*
Y31700D01*
G01X69687Y104592D02*
X69527Y104717D01*
X69340Y104800D01*
X69127D01*
X68887Y104675D01*
X68700Y104467D01*
X68567Y104217D01*
X68460Y103800D01*
X68433Y103425D01*
X68487Y103050D01*
X68567Y102800D01*
X68727Y102550D01*
X68913Y102383D01*
X69100Y102300D01*
X69287D01*
X69473Y102383D01*
X69633Y102508D01*
X69767Y102675D01*
G01X70713D02*
X70873Y102467D01*
X71060Y102342D01*
X71300Y102300D01*
X71540Y102383D01*
X71727Y102550D01*
X71860Y102842D01*
X71887Y103175D01*
X71833Y103508D01*
X71700Y103717D01*
X71513Y103883D01*
X71327Y103925D01*
X71140Y103883D01*
X70900Y103717D01*
X70980Y104800D01*
X71700D01*
G01X40492Y70613D02*
X40617Y70773D01*
X40700Y70960D01*
Y71173D01*
X40575Y71413D01*
X40367Y71600D01*
X40117Y71733D01*
X39700Y71840D01*
X39325Y71867D01*
X38950Y71813D01*
X38700Y71733D01*
X38450Y71573D01*
X38283Y71387D01*
X38200Y71200D01*
Y71013D01*
X38283Y70827D01*
X38408Y70667D01*
X38575Y70533D01*
G01X38200Y69000D02*
X38242Y68813D01*
X38367Y68600D01*
X38575Y68467D01*
X38867Y68413D01*
X39158Y68467D01*
X39408Y68627D01*
X39533Y68867D01*
Y69133D01*
X39617Y69293D01*
X39825Y69427D01*
X40117Y69480D01*
X40408Y69400D01*
X40617Y69213D01*
X40700Y69000D01*
X40617Y68787D01*
X40408Y68600D01*
X40117Y68520D01*
X39825Y68573D01*
X39617Y68707D01*
X39533Y68867D01*
Y69133D01*
X39408Y69373D01*
X39158Y69533D01*
X38867Y69587D01*
X38575Y69533D01*
X38367Y69400D01*
X38242Y69187D01*
X38200Y69000D01*
G01X32192Y84613D02*
X32317Y84773D01*
X32400Y84960D01*
Y85173D01*
X32275Y85413D01*
X32067Y85600D01*
X31817Y85733D01*
X31400Y85840D01*
X31025Y85867D01*
X30650Y85813D01*
X30400Y85733D01*
X30150Y85573D01*
X29983Y85387D01*
X29900Y85200D01*
Y85013D01*
X29983Y84827D01*
X30108Y84667D01*
X30275Y84533D01*
G01X29900Y83053D02*
X30442Y83000D01*
X30900Y82920D01*
X31317Y82813D01*
X31775Y82680D01*
X32400Y82467D01*
Y83533D01*
G01X61787Y116792D02*
X61627Y116917D01*
X61440Y117000D01*
X61227D01*
X60987Y116875D01*
X60800Y116667D01*
X60667Y116417D01*
X60560Y116000D01*
X60533Y115625D01*
X60587Y115250D01*
X60667Y115000D01*
X60827Y114750D01*
X61013Y114583D01*
X61200Y114500D01*
X61387D01*
X61573Y114583D01*
X61733Y114708D01*
X61867Y114875D01*
G01X62893Y115542D02*
X63080Y115833D01*
X63240Y116000D01*
X63453Y116083D01*
X63640Y116000D01*
X63773Y115833D01*
X63880Y115583D01*
X63907Y115292D01*
X63880Y115042D01*
X63773Y114792D01*
X63613Y114583D01*
X63427Y114500D01*
X63213Y114583D01*
X63027Y114833D01*
X62920Y115208D01*
X62893Y115625D01*
X62947Y116167D01*
X63027Y116458D01*
X63160Y116750D01*
X63347Y116958D01*
X63533Y117000D01*
X63720Y116917D01*
X63853Y116708D01*
G01X79800Y98933D02*
X82300D01*
Y98267D01*
X82175Y98053D01*
X82008Y97920D01*
X81675Y97867D01*
X81342Y97920D01*
X81133Y98080D01*
X81008Y98267D01*
Y98933D01*
G01Y98267D02*
X79800Y97867D01*
G01Y96200D02*
X82300D01*
X81800Y96520D01*
G01X79800D02*
Y95880D01*
G01X44200Y100633D02*
X46700D01*
Y99967D01*
X46575Y99753D01*
X46408Y99620D01*
X46075Y99567D01*
X45742Y99620D01*
X45533Y99780D01*
X45408Y99967D01*
Y100633D01*
G01Y99967D02*
X44200Y99567D01*
G01Y97900D02*
X46700D01*
X46200Y98220D01*
G01X44200D02*
Y97580D01*
G01X46700Y95700D02*
X46617Y95913D01*
X46408Y96073D01*
X46158Y96180D01*
X45825Y96260D01*
X45450Y96287D01*
X45075Y96260D01*
X44742Y96180D01*
X44492Y96073D01*
X44283Y95913D01*
X44200Y95700D01*
X44283Y95487D01*
X44492Y95327D01*
X44742Y95220D01*
X45075Y95140D01*
X45450Y95113D01*
X45825Y95140D01*
X46158Y95220D01*
X46408Y95327D01*
X46617Y95487D01*
X46700Y95700D01*
G01X29000Y55533D02*
X31500D01*
Y54867D01*
X31375Y54653D01*
X31208Y54520D01*
X30875Y54467D01*
X30542Y54520D01*
X30333Y54680D01*
X30208Y54867D01*
Y55533D01*
G01Y54867D02*
X29000Y54467D01*
G01Y52800D02*
X31500D01*
X31000Y53120D01*
G01X29000D02*
Y52480D01*
G01X29292Y51053D02*
X29083Y50867D01*
X29000Y50653D01*
X29083Y50440D01*
X29333Y50253D01*
X29708Y50120D01*
X30083Y50067D01*
X30542D01*
X30917Y50120D01*
X31250Y50253D01*
X31417Y50413D01*
X31500Y50600D01*
X31417Y50813D01*
X31250Y50973D01*
X31000Y51080D01*
X30667Y51133D01*
X30375Y51080D01*
X30083Y50947D01*
X29917Y50787D01*
X29875Y50600D01*
X29958Y50387D01*
X30167Y50227D01*
X30542Y50067D01*
G01X54300Y55433D02*
X56800D01*
Y54767D01*
X56675Y54553D01*
X56508Y54420D01*
X56175Y54367D01*
X55842Y54420D01*
X55633Y54580D01*
X55508Y54767D01*
Y55433D01*
G01Y54767D02*
X54300Y54367D01*
G01X56383Y53207D02*
X56633Y53047D01*
X56758Y52860D01*
X56800Y52647D01*
X56717Y52380D01*
X56508Y52193D01*
X56258Y52140D01*
X56008Y52167D01*
X55800Y52273D01*
X55383Y52807D01*
X55092Y53047D01*
X54675Y53207D01*
X54300Y53260D01*
Y52140D01*
G01X56800Y50500D02*
X56717Y50713D01*
X56508Y50873D01*
X56258Y50980D01*
X55925Y51060D01*
X55550Y51087D01*
X55175Y51060D01*
X54842Y50980D01*
X54592Y50873D01*
X54383Y50713D01*
X54300Y50500D01*
X54383Y50287D01*
X54592Y50127D01*
X54842Y50020D01*
X55175Y49940D01*
X55550Y49913D01*
X55925Y49940D01*
X56258Y50020D01*
X56508Y50127D01*
X56717Y50287D01*
X56800Y50500D01*
G01X77000Y55433D02*
X79500D01*
Y54767D01*
X79375Y54553D01*
X79208Y54420D01*
X78875Y54367D01*
X78542Y54420D01*
X78333Y54580D01*
X78208Y54767D01*
Y55433D01*
G01Y54767D02*
X77000Y54367D01*
G01X79083Y53207D02*
X79333Y53047D01*
X79458Y52860D01*
X79500Y52647D01*
X79417Y52380D01*
X79208Y52193D01*
X78958Y52140D01*
X78708Y52167D01*
X78500Y52273D01*
X78083Y52807D01*
X77792Y53047D01*
X77375Y53207D01*
X77000Y53260D01*
Y52140D01*
G01Y50500D02*
X79500D01*
X79000Y50820D01*
G01X77000D02*
Y50180D01*
G01X39600Y98533D02*
X42100D01*
Y97867D01*
X41975Y97653D01*
X41808Y97520D01*
X41475Y97467D01*
X41142Y97520D01*
X40933Y97680D01*
X40808Y97867D01*
Y98533D01*
G01Y97867D02*
X39600Y97467D01*
G01X39892Y96253D02*
X39683Y96067D01*
X39600Y95853D01*
X39683Y95640D01*
X39933Y95453D01*
X40308Y95320D01*
X40683Y95267D01*
X41142D01*
X41517Y95320D01*
X41850Y95453D01*
X42017Y95613D01*
X42100Y95800D01*
X42017Y96013D01*
X41850Y96173D01*
X41600Y96280D01*
X41267Y96333D01*
X40975Y96280D01*
X40683Y96147D01*
X40517Y95987D01*
X40475Y95800D01*
X40558Y95587D01*
X40767Y95427D01*
X41142Y95267D01*
G01X34300Y55433D02*
X36800D01*
Y54767D01*
X36675Y54553D01*
X36508Y54420D01*
X36175Y54367D01*
X35842Y54420D01*
X35633Y54580D01*
X35508Y54767D01*
Y55433D01*
G01Y54767D02*
X34300Y54367D01*
G01Y52700D02*
X36800D01*
X36300Y53020D01*
G01X34300D02*
Y52380D01*
G01X35342Y51007D02*
X35633Y50820D01*
X35800Y50660D01*
X35883Y50447D01*
X35800Y50260D01*
X35633Y50127D01*
X35383Y50020D01*
X35092Y49993D01*
X34842Y50020D01*
X34592Y50127D01*
X34383Y50287D01*
X34300Y50473D01*
X34383Y50687D01*
X34633Y50873D01*
X35008Y50980D01*
X35425Y51007D01*
X35967Y50953D01*
X36258Y50873D01*
X36550Y50740D01*
X36758Y50553D01*
X36800Y50367D01*
X36717Y50180D01*
X36508Y50047D01*
G01X59200Y55333D02*
X61700D01*
Y54667D01*
X61575Y54453D01*
X61408Y54320D01*
X61075Y54267D01*
X60742Y54320D01*
X60533Y54480D01*
X60408Y54667D01*
Y55333D01*
G01Y54667D02*
X59200Y54267D01*
G01Y52600D02*
X61700D01*
X61200Y52920D01*
G01X59200D02*
Y52280D01*
G01Y50453D02*
X59742Y50400D01*
X60200Y50320D01*
X60617Y50213D01*
X61075Y50080D01*
X61700Y49867D01*
Y50933D01*
G01X82000Y55433D02*
X84500D01*
Y54767D01*
X84375Y54553D01*
X84208Y54420D01*
X83875Y54367D01*
X83542Y54420D01*
X83333Y54580D01*
X83208Y54767D01*
Y55433D01*
G01Y54767D02*
X82000Y54367D01*
G01Y52700D02*
X84500D01*
X84000Y53020D01*
G01X82000D02*
Y52380D01*
G01Y50500D02*
X82042Y50313D01*
X82167Y50100D01*
X82375Y49967D01*
X82667Y49913D01*
X82958Y49967D01*
X83208Y50127D01*
X83333Y50367D01*
Y50633D01*
X83417Y50793D01*
X83625Y50927D01*
X83917Y50980D01*
X84208Y50900D01*
X84417Y50713D01*
X84500Y50500D01*
X84417Y50287D01*
X84208Y50100D01*
X83917Y50020D01*
X83625Y50073D01*
X83417Y50207D01*
X83333Y50367D01*
Y50633D01*
X83208Y50873D01*
X82958Y51033D01*
X82667Y51087D01*
X82375Y51033D01*
X82167Y50900D01*
X82042Y50687D01*
X82000Y50500D01*
G01X75300Y99033D02*
X77800D01*
Y98367D01*
X77675Y98153D01*
X77508Y98020D01*
X77175Y97967D01*
X76842Y98020D01*
X76633Y98180D01*
X76508Y98367D01*
Y99033D01*
G01Y98367D02*
X75300Y97967D01*
G01X77383Y96807D02*
X77633Y96647D01*
X77758Y96460D01*
X77800Y96247D01*
X77717Y95980D01*
X77508Y95793D01*
X77258Y95740D01*
X77008Y95767D01*
X76800Y95873D01*
X76383Y96407D01*
X76092Y96647D01*
X75675Y96807D01*
X75300Y96860D01*
Y95740D01*
G01X66400Y99233D02*
X68900D01*
Y98567D01*
X68775Y98353D01*
X68608Y98220D01*
X68275Y98167D01*
X67942Y98220D01*
X67733Y98380D01*
X67608Y98567D01*
Y99233D01*
G01Y98567D02*
X66400Y98167D01*
G01X66900Y97087D02*
X66608Y96927D01*
X66442Y96713D01*
X66400Y96473D01*
X66442Y96260D01*
X66650Y96047D01*
X66900Y95913D01*
X67150Y95887D01*
X67442Y95940D01*
X67650Y96127D01*
X67733Y96313D01*
Y96553D01*
G01Y96313D02*
X67858Y96153D01*
X68067Y96020D01*
X68317Y95967D01*
X68567Y96020D01*
X68775Y96153D01*
X68900Y96393D01*
X68858Y96633D01*
X68692Y96873D01*
G01X57000Y99033D02*
X59500D01*
Y98367D01*
X59375Y98153D01*
X59208Y98020D01*
X58875Y97967D01*
X58542Y98020D01*
X58333Y98180D01*
X58208Y98367D01*
Y99033D01*
G01Y98367D02*
X57000Y97967D01*
G01X57375Y96887D02*
X57167Y96727D01*
X57042Y96540D01*
X57000Y96300D01*
X57083Y96060D01*
X57250Y95873D01*
X57542Y95740D01*
X57875Y95713D01*
X58208Y95767D01*
X58417Y95900D01*
X58583Y96087D01*
X58625Y96273D01*
X58583Y96460D01*
X58417Y96700D01*
X59500Y96620D01*
Y95900D01*
G01X84400Y98833D02*
X86900D01*
Y98167D01*
X86775Y97953D01*
X86608Y97820D01*
X86275Y97767D01*
X85942Y97820D01*
X85733Y97980D01*
X85608Y98167D01*
Y98833D01*
G01Y98167D02*
X84400Y97767D01*
G01Y95780D02*
X86900D01*
X85108Y96767D01*
Y95433D01*
G01X52900Y98933D02*
X55400D01*
Y98267D01*
X55275Y98053D01*
X55108Y97920D01*
X54775Y97867D01*
X54442Y97920D01*
X54233Y98080D01*
X54108Y98267D01*
Y98933D01*
G01Y98267D02*
X52900Y97867D01*
G01X53942Y96707D02*
X54233Y96520D01*
X54400Y96360D01*
X54483Y96147D01*
X54400Y95960D01*
X54233Y95827D01*
X53983Y95720D01*
X53692Y95693D01*
X53442Y95720D01*
X53192Y95827D01*
X52983Y95987D01*
X52900Y96173D01*
X52983Y96387D01*
X53233Y96573D01*
X53608Y96680D01*
X54025Y96707D01*
X54567Y96653D01*
X54858Y96573D01*
X55150Y96440D01*
X55358Y96253D01*
X55400Y96067D01*
X55317Y95880D01*
X55108Y95747D01*
G01X61700Y99033D02*
X64200D01*
Y98367D01*
X64075Y98153D01*
X63908Y98020D01*
X63575Y97967D01*
X63242Y98020D01*
X63033Y98180D01*
X62908Y98367D01*
Y99033D01*
G01Y98367D02*
X61700Y97967D01*
G01Y96353D02*
X62242Y96300D01*
X62700Y96220D01*
X63117Y96113D01*
X63575Y95980D01*
X64200Y95767D01*
Y96833D01*
G01X70900Y99033D02*
X73400D01*
Y98367D01*
X73275Y98153D01*
X73108Y98020D01*
X72775Y97967D01*
X72442Y98020D01*
X72233Y98180D01*
X72108Y98367D01*
Y99033D01*
G01Y98367D02*
X70900Y97967D01*
G01Y96300D02*
X70942Y96113D01*
X71067Y95900D01*
X71275Y95767D01*
X71567Y95713D01*
X71858Y95767D01*
X72108Y95927D01*
X72233Y96167D01*
Y96433D01*
X72317Y96593D01*
X72525Y96727D01*
X72817Y96780D01*
X73108Y96700D01*
X73317Y96513D01*
X73400Y96300D01*
X73317Y96087D01*
X73108Y95900D01*
X72817Y95820D01*
X72525Y95873D01*
X72317Y96007D01*
X72233Y96167D01*
Y96433D01*
X72108Y96673D01*
X71858Y96833D01*
X71567Y96887D01*
X71275Y96833D01*
X71067Y96700D01*
X70942Y96487D01*
X70900Y96300D01*
G01X48300Y100533D02*
X50800D01*
Y99867D01*
X50675Y99653D01*
X50508Y99520D01*
X50175Y99467D01*
X49842Y99520D01*
X49633Y99680D01*
X49508Y99867D01*
Y100533D01*
G01Y99867D02*
X48300Y99467D01*
G01Y97800D02*
X50800D01*
X50300Y98120D01*
G01X48300D02*
Y97480D01*
G01Y95600D02*
X50800D01*
X50300Y95920D01*
G01X48300D02*
Y95280D01*
G01X0Y0D02*
X100000D01*
Y130000D01*
X0D01*
Y0D01*
G54D11*
X26982Y103160D03*
Y106900D03*
Y110640D03*
X37218D03*
Y103160D03*
G54D21*
G01X27957Y28176D02*
G03I-394J0D01*
G01X28557Y113199D02*
G03I-394J0D01*
G01X13479Y90900D02*
Y50900D01*
X23321D01*
Y90900D01*
X13479D01*
G01X80187Y35656D02*
Y30144D01*
X79006D01*
Y35656D01*
X80187D01*
G01X75857Y28176D02*
G03I-394J0D01*
G01X32287Y35656D02*
Y30144D01*
X31106D01*
Y35656D01*
X32287D01*
G01X56587D02*
Y30144D01*
X55406D01*
Y35656D01*
X56587D01*
G01X52257Y28176D02*
G03I-394J0D01*
G01X74324Y65107D02*
X76293D01*
Y67076D01*
G01X64876Y65107D02*
X62907D01*
Y67076D01*
G01X74324Y78493D02*
X76293D01*
Y76524D01*
G01X64876Y78493D02*
X62907D01*
Y76524D01*
G01X62283Y79674D02*
G03I-557J0D01*
G01X31313Y110443D02*
X33675D01*
Y102963D01*
X30525D01*
Y110443D01*
X31313D01*
G01X64887Y105069D02*
X67643D01*
Y101131D01*
X64887D01*
G01X63313Y105069D02*
X60557D01*
Y101131D01*
X63313D01*
G01X37069Y69713D02*
Y66957D01*
X33131D01*
Y69713D01*
G01X37069Y71287D02*
Y74043D01*
X33131D01*
Y71287D01*
G01X32569Y77413D02*
Y74657D01*
X28631D01*
Y77413D01*
G01X32569Y78987D02*
Y81743D01*
X28631D01*
Y78987D01*
G01X67981Y107550D02*
X73099D01*
Y113850D01*
X67981D01*
G01X65619D02*
X60501D01*
Y107550D01*
X65619D01*
G01X79231Y89987D02*
Y92743D01*
X83169D01*
Y89987D01*
G01X79231Y88413D02*
Y85657D01*
X83169D01*
Y88413D01*
G01X46969D02*
Y85657D01*
X43031D01*
Y88413D01*
G01X46969Y89987D02*
Y92743D01*
X43031D01*
Y89987D01*
G01X32569Y69713D02*
Y66957D01*
X28631D01*
Y69713D01*
G01X32569Y71287D02*
Y74043D01*
X28631D01*
Y71287D01*
G01X28431Y60787D02*
Y63543D01*
X32369D01*
Y60787D01*
G01X28431Y59213D02*
Y56457D01*
X32369D01*
Y59213D01*
G01X53231Y60687D02*
Y63443D01*
X57169D01*
Y60687D01*
G01X53231Y59113D02*
Y56357D01*
X57169D01*
Y59113D01*
G01X76193Y60687D02*
Y63443D01*
X80131D01*
Y60687D01*
G01X76193Y59113D02*
Y56357D01*
X80131D01*
Y59113D01*
G01X42469Y88413D02*
Y85657D01*
X38531D01*
Y88413D01*
G01X42469Y89987D02*
Y92743D01*
X38531D01*
Y89987D01*
G01X36869Y59213D02*
Y56457D01*
X32931D01*
Y59213D01*
G01X36869Y60787D02*
Y63543D01*
X32931D01*
Y60787D01*
G01X61669Y59113D02*
Y56357D01*
X57731D01*
Y59113D01*
G01X61669Y60687D02*
Y63443D01*
X57731D01*
Y60687D01*
G01X84669Y59113D02*
Y56357D01*
X80731D01*
Y59113D01*
G01X84669Y60687D02*
Y63443D01*
X80731D01*
Y60687D01*
G01X78669Y88413D02*
Y85657D01*
X74731D01*
Y88413D01*
G01X78669Y89987D02*
Y92743D01*
X74731D01*
Y89987D01*
G01X69579Y88413D02*
Y85657D01*
X65641D01*
Y88413D01*
G01X69579Y89987D02*
Y92743D01*
X65641D01*
Y89987D01*
G01X60503Y88413D02*
Y85657D01*
X56565D01*
Y88413D01*
G01X60503Y89987D02*
Y92743D01*
X56565D01*
Y89987D01*
G01X83731D02*
Y92743D01*
X87669D01*
Y89987D01*
G01X83731Y88413D02*
Y85657D01*
X87669D01*
Y88413D01*
G01X52027Y89987D02*
Y92743D01*
X55965D01*
Y89987D01*
G01X52027Y88413D02*
Y85657D01*
X55965D01*
Y88413D01*
G01X61103Y89987D02*
Y92743D01*
X65041D01*
Y89987D01*
G01X61103Y88413D02*
Y85657D01*
X65041D01*
Y88413D01*
G01X70193Y89987D02*
Y92743D01*
X74131D01*
Y89987D01*
G01X70193Y88413D02*
Y85657D01*
X74131D01*
Y88413D01*
G01X51469D02*
Y85657D01*
X47531D01*
Y88413D01*
G01X51469Y89987D02*
Y92743D01*
X47531D01*
Y89987D01*
G54D12*
X18400Y55900D03*
Y65900D03*
Y75900D03*
G54D13*
Y85900D03*
G54D14*
X69600Y71800D03*
G54D15*
X66647Y77902D03*
X68616D03*
X70584D03*
X72553D03*
Y65698D03*
X70584D03*
X68616D03*
X66647D03*
G54D16*
X74521Y76721D03*
Y66879D03*
X64679D03*
Y76721D03*
G54D17*
X75702Y74753D03*
Y72784D03*
Y70816D03*
Y68847D03*
X63498D03*
Y70816D03*
Y72784D03*
Y74753D03*
G54D18*
X65714Y103100D03*
X62486D03*
X35100Y68886D03*
Y72114D03*
X30600Y76586D03*
Y79814D03*
X81200Y90814D03*
Y87586D03*
X45000D03*
Y90814D03*
X30600Y68886D03*
Y72114D03*
X30400Y61614D03*
Y58386D03*
X55200Y61514D03*
Y58286D03*
X78162Y61514D03*
Y58286D03*
X40500Y87586D03*
Y90814D03*
X34900Y58386D03*
Y61614D03*
X59700Y58286D03*
Y61514D03*
X82700Y58286D03*
Y61514D03*
X76700Y87586D03*
Y90814D03*
X67610Y87586D03*
Y90814D03*
X58534Y87586D03*
Y90814D03*
X85700D03*
Y87586D03*
X53996Y90814D03*
Y87586D03*
X63072Y90814D03*
Y87586D03*
X72162Y90814D03*
Y87586D03*
X49500D03*
Y90814D03*
G54D19*
X70107Y110700D03*
X63493D03*
M02*
