G04 ================== begin FILE IDENTIFICATION RECORD ==================*
G04 Layout Name:  C:/Users/abcd/Documents/GitHub/sophum_esc_v2/PCB/sophum_esc_v2.brd*
G04 Film Name:    DRILL*
G04 File Format:  Gerber RS274X*
G04 File Origin:  Cadence Allegro 16.6-2015-S066*
G04 Origin Date:  Sat Jan 11 17:17:42 2020*
G04 *
G04 Layer:  MANUFACTURING/NCLEGEND-1-4*
G04 Layer:  MANUFACTURING/NCDRILL_LEGEND*
G04 Layer:  MANUFACTURING/NCDRILL_FIGURE*
G04 Layer:  BOARD GEOMETRY/OUTLINE*
G04 *
G04 Offset:    (0.00 0.00)*
G04 Mirror:    No*
G04 Mode:      Positive*
G04 Rotation:  0*
G04 FullContactRelief:  No*
G04 UndefLineWidth:     6.00*
G04 ================== end FILE IDENTIFICATION RECORD ====================*
%FSLAX25Y25*MOIN*%
%IR0*IPPOS*OFA0.00000B0.00000*MIA0B0*SFA1.00000B1.00000*%
%AMMACRO10*
1,1,.006,0.0,.025*
20,1,.006,0.0,.025,.021655,-.025,0.0*
1,1,.006,.021655,-.025*
20,1,.006,.021655,-.025,-.021655,-.025,0.0*
1,1,.006,-.021655,-.025*
20,1,.006,-.021655,-.025,0.0,.025,0.0*
1,1,.006,0.0,.025*
1,1,.006,-.00649,-.01082*
20,1,.006,-.00649,-.01082,-.00649,.01083,0.0*
1,1,.006,-.00649,.01083*
1,1,.006,-.00649,0.0*
20,1,.006,-.00649,0.0,-.00469,.00217,0.0*
1,1,.006,-.00469,.00217*
20,1,.006,-.00469,.00217,-.00252,.00325,0.0*
1,1,.006,-.00252,.00325*
20,1,.006,-.00252,.00325,-.00036,.00361,0.0*
1,1,.006,-.00036,.00361*
20,1,.006,-.00036,.00361,.00289,.00289,0.0*
1,1,.006,.00289,.00289*
20,1,.006,.00289,.00289,.00506,.00145,0.0*
1,1,.006,.00506,.00145*
20,1,.006,.00506,.00145,.0065,-.00108,0.0*
1,1,.006,.0065,-.00108*
20,1,.006,.0065,-.00108,.0065,-.00396,0.0*
1,1,.006,.0065,-.00396*
20,1,.006,.0065,-.00396,.00578,-.00685,0.0*
1,1,.006,.00578,-.00685*
20,1,.006,.00578,-.00685,.00434,-.00902,0.0*
1,1,.006,.00434,-.00902*
20,1,.006,.00434,-.00902,.00181,-.01046,0.0*
1,1,.006,.00181,-.01046*
20,1,.006,.00181,-.01046,-.00036,-.01082,0.0*
1,1,.006,-.00036,-.01082*
20,1,.006,-.00036,-.01082,-.00252,-.01046,0.0*
1,1,.006,-.00252,-.01046*
20,1,.006,-.00252,-.01046,-.00469,-.00938,0.0*
1,1,.006,-.00469,-.00938*
20,1,.006,-.00469,-.00938,-.00649,-.00757,0.0*
1,1,.006,-.00649,-.00757*
%
%ADD10MACRO10*%
%AMMACRO11*
1,1,.006,-.0101,-.03248*
20,1,.006,-.0101,-.03248,-.00505,-.03536,0.0*
1,1,.006,-.00505,-.03536*
20,1,.006,-.00505,-.03536,.00073,-.03609,0.0*
1,1,.006,.00073,-.03609*
20,1,.006,.00073,-.03609,.00578,-.03536,0.0*
1,1,.006,.00578,-.03536*
20,1,.006,.00578,-.03536,.01011,-.03176,0.0*
1,1,.006,.01011,-.03176*
20,1,.006,.01011,-.03176,.013,-.0267,0.0*
1,1,.006,.013,-.0267*
20,1,.006,.013,-.0267,.013,.00722,0.0*
1,1,.006,.013,.00722*
1,1,.006,.013,.00145*
20,1,.006,.013,.00145,.01011,.00434,0.0*
1,1,.006,.01011,.00434*
20,1,.006,.01011,.00434,.00578,.0065,0.0*
1,1,.006,.00578,.0065*
20,1,.006,.00578,.0065,.00073,.00722,0.0*
1,1,.006,.00073,.00722*
20,1,.006,.00073,.00722,-.00505,.00578,0.0*
1,1,.006,-.00505,.00578*
20,1,.006,-.00505,.00578,-.00866,.00289,0.0*
1,1,.006,-.00866,.00289*
20,1,.006,-.00866,.00289,-.01155,-.00216,0.0*
1,1,.006,-.01155,-.00216*
20,1,.006,-.01155,-.00216,-.01299,-.00721,0.0*
1,1,.006,-.01299,-.00721*
20,1,.006,-.01299,-.00721,-.01227,-.01155,0.0*
1,1,.006,-.01227,-.01155*
20,1,.006,-.01227,-.01155,-.00938,-.0166,0.0*
1,1,.006,-.00938,-.0166*
20,1,.006,-.00938,-.0166,-.00505,-.02021,0.0*
1,1,.006,-.00505,-.02021*
20,1,.006,-.00505,-.02021,.00073,-.02165,0.0*
1,1,.006,.00073,-.02165*
20,1,.006,.00073,-.02165,.00506,-.02093,0.0*
1,1,.006,.00506,-.02093*
20,1,.006,.00506,-.02093,.01011,-.01804,0.0*
1,1,.006,.01011,-.01804*
20,1,.006,.01011,-.01804,.013,-.01515,0.0*
1,1,.006,.013,-.01515*
%
%ADD11MACRO11*%
%ADD12C,.006*%
G75*
%LPD*%
G75*
G54D10*
X26650Y8550D03*
X23500Y5400D03*
X26650D03*
X29800D03*
Y2250D03*
X26650D03*
X23500D03*
X29800Y8550D03*
Y11700D03*
X26650D03*
X23500D03*
Y8550D03*
X25900Y59600D03*
X13200Y118250D03*
X16350D03*
X19500D03*
X22650D03*
Y121400D03*
X19500D03*
X16350D03*
X13200D03*
Y124550D03*
X16350D03*
X19500D03*
X22650D03*
Y127700D03*
X13200D03*
X16350D03*
X19500D03*
X46000Y21750D03*
X39700Y28050D03*
X70700Y19400D03*
Y24400D03*
X42850Y21750D03*
Y24900D03*
X39700D03*
X46000Y18600D03*
X70700Y22000D03*
X32950Y11700D03*
Y8550D03*
Y5400D03*
Y2250D03*
X52800Y8650D03*
X62250Y11800D03*
Y5500D03*
X59100Y11800D03*
X52800D03*
Y2350D03*
X55950Y8650D03*
X59100D03*
X62250D03*
X55950Y2350D03*
X62250D03*
X59100D03*
Y5500D03*
X55950D03*
X52800D03*
X55950Y11800D03*
X86450Y5300D03*
X80150Y11600D03*
X77000Y8450D03*
Y5300D03*
X80150Y8450D03*
X83300D03*
Y11600D03*
X77000D03*
X86450Y8450D03*
X77000Y2150D03*
X80150D03*
X83300D03*
Y5300D03*
X80150D03*
X86450Y2150D03*
Y11600D03*
X69849Y27039D03*
X85600Y32900D03*
X37700D03*
X39651Y19449D03*
X46249Y27139D03*
X62000Y32900D03*
X61837Y119126D03*
X57900D03*
Y123063D03*
X61837D03*
X86750Y115000D03*
X77300D03*
X72100Y74300D03*
X77300Y121300D03*
X80450D03*
X83600D03*
Y118150D03*
X80450D03*
X77300D03*
X86750D03*
X72100Y69300D03*
X86750Y121300D03*
X69600Y71800D03*
X86750Y111850D03*
X51514Y61514D03*
X83600Y115000D03*
X72162Y93300D03*
X63072D03*
X53996D03*
X31900Y106900D03*
X67100Y74300D03*
X80450Y115000D03*
X67100Y69300D03*
X76700Y93300D03*
X67610D03*
X58534D03*
X40500D03*
X56300Y81400D03*
X49500Y93300D03*
X68616Y84040D03*
X32600Y113900D03*
X86386Y58286D03*
X82677Y51014D03*
X35014D03*
X38586Y58386D03*
X51514Y58286D03*
X59714Y51014D03*
X63072Y84049D03*
X45000Y93300D03*
X65700Y59200D03*
X72553Y61853D03*
X41737Y119026D03*
X37800D03*
Y122963D03*
X41737D03*
X81200Y93300D03*
X57900Y127000D03*
X77300Y127600D03*
X80450D03*
X83600D03*
Y124450D03*
X80450D03*
X77300D03*
X61837Y127000D03*
X86750Y127600D03*
Y124450D03*
X41737Y126900D03*
X37800D03*
X156950Y42600D03*
G54D11*
X18400Y55900D03*
Y65900D03*
Y75900D03*
Y85900D03*
X156950Y17600D03*
G54D12*
G01X112000Y5100D02*
Y130100D01*
X595600D01*
Y5100D01*
X112000D01*
G01Y30100D02*
X595600D01*
G01X112000Y105100D02*
X595600D01*
G01X112000Y80100D02*
X595600D01*
G01X112000Y55100D02*
X595600D01*
G01X201900Y80100D02*
Y5100D01*
G01X195390Y111350D02*
Y123850D01*
X198490D01*
X199730Y123225D01*
X200660Y122392D01*
X201435Y121142D01*
X202055Y119683D01*
X202210Y117600D01*
X202055Y115517D01*
X201435Y114058D01*
X200660Y112808D01*
X199730Y111975D01*
X198490Y111350D01*
X195390D01*
G01X208100D02*
Y123850D01*
X211975D01*
X213215Y123225D01*
X213990Y122392D01*
X214300Y120725D01*
X213990Y119058D01*
X213060Y118017D01*
X211975Y117392D01*
X208100D01*
G01X211975D02*
X214300Y111350D01*
G01X221740Y123850D02*
X225460D01*
G01X223600D02*
Y111350D01*
G01X221740D02*
X225460D01*
G01X232900Y123850D02*
Y111350D01*
X239100D01*
G01X245300Y123850D02*
Y111350D01*
X251500D01*
G01X276610Y122808D02*
X275680Y123433D01*
X274595Y123850D01*
X273355D01*
X271960Y123225D01*
X270875Y122183D01*
X270100Y120933D01*
X269480Y118850D01*
X269325Y116975D01*
X269635Y115100D01*
X270100Y113850D01*
X271030Y112600D01*
X272115Y111767D01*
X273200Y111350D01*
X274285D01*
X275370Y111767D01*
X276300Y112391D01*
X277075Y113225D01*
G01X282345Y111350D02*
Y123850D01*
G01X288855D02*
Y111350D01*
G01Y117600D02*
X282345D01*
G01X294125Y111350D02*
X298000Y123850D01*
X301875Y111350D01*
G01X300480Y115725D02*
X295520D01*
G01X307300Y111350D02*
Y123850D01*
X311175D01*
X312415Y123225D01*
X313190Y122392D01*
X313500Y120725D01*
X313190Y119058D01*
X312260Y118017D01*
X311175Y117392D01*
X307300D01*
G01X311175D02*
X313500Y111350D01*
G01X322800Y123850D02*
Y111350D01*
G01X319235Y123850D02*
X326365D01*
G01X335200Y110933D02*
X334890Y111142D01*
Y111558D01*
X335200Y111767D01*
X335510Y111558D01*
Y111142D01*
X335200Y110933D01*
G01Y116558D02*
X334890Y116767D01*
Y117183D01*
X335200Y117392D01*
X335510Y117183D01*
Y116767D01*
X335200Y116558D01*
G01X360000Y123850D02*
Y111350D01*
G01X356435Y123850D02*
X363565D01*
G01X372400Y111350D02*
X371160Y111558D01*
X370075Y112391D01*
X369145Y113642D01*
X368525Y115100D01*
X368215Y116767D01*
Y118433D01*
X368525Y120100D01*
X369145Y121558D01*
X370075Y122808D01*
X371160Y123642D01*
X372400Y123850D01*
X373640Y123642D01*
X374725Y122808D01*
X375655Y121558D01*
X376275Y120100D01*
X376585Y118433D01*
Y116767D01*
X376275Y115100D01*
X375655Y113642D01*
X374725Y112391D01*
X373640Y111558D01*
X372400Y111350D01*
G01X381700D02*
Y123850D01*
X385420D01*
X386660Y123225D01*
X387590Y121767D01*
X387900Y120100D01*
X387590Y118433D01*
X386815Y117183D01*
X385420Y116558D01*
X381700D01*
G01X409600Y123850D02*
Y111350D01*
G01X407430Y119683D02*
X411770D01*
G01X422000Y111350D02*
X421070Y111558D01*
X420140Y112391D01*
X419520Y113850D01*
X419210Y115517D01*
X419520Y117183D01*
X420140Y118642D01*
X421070Y119475D01*
X422000Y119683D01*
X422930Y119475D01*
X423860Y118642D01*
X424480Y117183D01*
X424635Y115517D01*
X424480Y113850D01*
X423860Y112391D01*
X422930Y111558D01*
X422000Y111350D01*
G01X448040Y118017D02*
X448660Y118642D01*
X449125Y119683D01*
X449435Y121142D01*
X449125Y122392D01*
X448505Y123225D01*
X447420Y123850D01*
X443235D01*
Y111350D01*
X448350D01*
X449435Y112183D01*
X450055Y113433D01*
X450365Y114892D01*
X450055Y116350D01*
X449125Y117600D01*
X448040Y118017D01*
X443235D01*
G01X459200Y111350D02*
X457960Y111558D01*
X456875Y112391D01*
X455945Y113642D01*
X455325Y115100D01*
X455015Y116767D01*
Y118433D01*
X455325Y120100D01*
X455945Y121558D01*
X456875Y122808D01*
X457960Y123642D01*
X459200Y123850D01*
X460440Y123642D01*
X461525Y122808D01*
X462455Y121558D01*
X463075Y120100D01*
X463385Y118433D01*
Y116767D01*
X463075Y115100D01*
X462455Y113642D01*
X461525Y112391D01*
X460440Y111558D01*
X459200Y111350D01*
G01X471600Y123850D02*
Y111350D01*
G01X468035Y123850D02*
X475165D01*
G01X484000D02*
Y111350D01*
G01X480435Y123850D02*
X487565D01*
G01X496400Y111350D02*
X495160Y111558D01*
X494075Y112391D01*
X493145Y113642D01*
X492525Y115100D01*
X492215Y116767D01*
Y118433D01*
X492525Y120100D01*
X493145Y121558D01*
X494075Y122808D01*
X495160Y123642D01*
X496400Y123850D01*
X497640Y123642D01*
X498725Y122808D01*
X499655Y121558D01*
X500275Y120100D01*
X500585Y118433D01*
Y116767D01*
X500275Y115100D01*
X499655Y113642D01*
X498725Y112391D01*
X497640Y111558D01*
X496400Y111350D01*
G01X504770D02*
Y123850D01*
X508800Y113433D01*
X512830Y123850D01*
Y111350D01*
G01X123005Y61350D02*
Y73850D01*
X128895D01*
G01X126725Y67808D02*
X123005D01*
G01X136490Y73850D02*
X140210D01*
G01X138350D02*
Y61350D01*
G01X136490D02*
X140210D01*
G01X151680Y67600D02*
X154780D01*
Y63850D01*
X153850Y62600D01*
X152765Y61767D01*
X151215Y61350D01*
X149665Y61767D01*
X148580Y62600D01*
X147650Y63850D01*
X147030Y65308D01*
X146720Y66975D01*
Y68433D01*
X147030Y69683D01*
X147650Y71142D01*
X148580Y72392D01*
X149510Y73225D01*
X150750Y73850D01*
X151835D01*
X153075Y73433D01*
X154005Y72600D01*
G01X159740Y73850D02*
Y64892D01*
X160360Y63016D01*
X161600Y61767D01*
X163150Y61350D01*
X164700Y61767D01*
X165940Y63016D01*
X166560Y64892D01*
Y73850D01*
G01X172450Y61350D02*
Y73850D01*
X176325D01*
X177565Y73225D01*
X178340Y72392D01*
X178650Y70725D01*
X178340Y69058D01*
X177410Y68017D01*
X176325Y67392D01*
X172450D01*
G01X176325D02*
X178650Y61350D01*
G01X191050D02*
X184850D01*
Y73850D01*
X191050D01*
G01X188570Y67808D02*
X184850D01*
G01X268240Y13850D02*
X269170Y12391D01*
X270410Y11558D01*
X271805Y11350D01*
X273045Y11558D01*
X274285Y12600D01*
X275060Y13850D01*
X275215Y15100D01*
X274905Y16558D01*
X273820Y17600D01*
X272735Y18017D01*
X271340D01*
G01X272735D02*
X273665Y18642D01*
X274440Y19683D01*
X274750Y20933D01*
X274440Y22183D01*
X273665Y23225D01*
X272270Y23850D01*
X270875Y23642D01*
X269480Y22808D01*
G01X281415Y12808D02*
X282500Y11767D01*
X283740Y11350D01*
X284980Y11767D01*
X286065Y13016D01*
X286840Y14892D01*
X287150Y16767D01*
Y19058D01*
X286840Y20933D01*
X286065Y22600D01*
X285135Y23433D01*
X284050Y23850D01*
X282810Y23433D01*
X281880Y22600D01*
X281260Y21350D01*
X280950Y19683D01*
X281260Y18225D01*
X282035Y16767D01*
X282965Y15933D01*
X284050Y15725D01*
X285290Y16141D01*
X286220Y17183D01*
X287150Y19058D01*
G01X296450Y10933D02*
X296140Y11142D01*
Y11558D01*
X296450Y11767D01*
X296760Y11558D01*
Y11142D01*
X296450Y10933D01*
G01X305440Y13850D02*
X306370Y12391D01*
X307610Y11558D01*
X309005Y11350D01*
X310245Y11558D01*
X311485Y12600D01*
X312260Y13850D01*
X312415Y15100D01*
X312105Y16558D01*
X311020Y17600D01*
X309935Y18017D01*
X308540D01*
G01X309935D02*
X310865Y18642D01*
X311640Y19683D01*
X311950Y20933D01*
X311640Y22183D01*
X310865Y23225D01*
X309470Y23850D01*
X308075Y23642D01*
X306680Y22808D01*
G01X320940Y11350D02*
X321250Y14058D01*
X321715Y16350D01*
X322335Y18433D01*
X323110Y20725D01*
X324350Y23850D01*
X318150D01*
G01X225925Y86350D02*
X229800Y98850D01*
X233675Y86350D01*
G01X232280Y90725D02*
X227320D01*
G01X239100Y98850D02*
Y86350D01*
X245300D01*
G01X251500Y98850D02*
Y86350D01*
X257700D01*
G01X275990Y98850D02*
Y89892D01*
X276610Y88016D01*
X277850Y86767D01*
X279400Y86350D01*
X280950Y86767D01*
X282190Y88016D01*
X282810Y89892D01*
Y98850D01*
G01X288235Y86350D02*
Y98850D01*
X295365Y86350D01*
Y98850D01*
G01X302340D02*
X306060D01*
G01X304200D02*
Y86350D01*
G01X302340D02*
X306060D01*
G01X316600Y98850D02*
Y86350D01*
G01X313035Y98850D02*
X320165D01*
G01X325745Y88016D02*
X326985Y86975D01*
X328380Y86350D01*
X329620D01*
X330860Y86975D01*
X331790Y88016D01*
X332255Y89475D01*
X331945Y90933D01*
X331170Y92183D01*
X329775Y93017D01*
X327915Y93433D01*
X326830Y94267D01*
X326365Y95725D01*
X326675Y97183D01*
X327450Y98225D01*
X328535Y98850D01*
X329620D01*
X330705Y98433D01*
X331635Y97392D01*
G01X349925Y86350D02*
X353800Y98850D01*
X357675Y86350D01*
G01X356280Y90725D02*
X351320D01*
G01X363100Y86350D02*
Y98850D01*
X366975D01*
X368215Y98225D01*
X368990Y97392D01*
X369300Y95725D01*
X368990Y94058D01*
X368060Y93017D01*
X366975Y92392D01*
X363100D01*
G01X366975D02*
X369300Y86350D01*
G01X381700D02*
X375500D01*
Y98850D01*
X381700D01*
G01X379220Y92808D02*
X375500D01*
G01X401540Y98850D02*
X405260D01*
G01X403400D02*
Y86350D01*
G01X401540D02*
X405260D01*
G01X412235D02*
Y98850D01*
X419365Y86350D01*
Y98850D01*
G01X436570Y86350D02*
Y98850D01*
X440600Y88433D01*
X444630Y98850D01*
Y86350D01*
G01X451140Y98850D02*
X454860D01*
G01X453000D02*
Y86350D01*
G01X451140D02*
X454860D01*
G01X462300Y98850D02*
Y86350D01*
X468500D01*
G01X474545Y88016D02*
X475785Y86975D01*
X477180Y86350D01*
X478420D01*
X479660Y86975D01*
X480590Y88016D01*
X481055Y89475D01*
X480745Y90933D01*
X479970Y92183D01*
X478575Y93017D01*
X476715Y93433D01*
X475630Y94267D01*
X475165Y95725D01*
X475475Y97183D01*
X476250Y98225D01*
X477335Y98850D01*
X478420D01*
X479505Y98433D01*
X480435Y97392D01*
G01X274595Y63016D02*
X275835Y61975D01*
X277230Y61350D01*
X278470D01*
X279710Y61975D01*
X280640Y63016D01*
X281105Y64475D01*
X280795Y65933D01*
X280020Y67183D01*
X278625Y68017D01*
X276765Y68433D01*
X275680Y69267D01*
X275215Y70725D01*
X275525Y72183D01*
X276300Y73225D01*
X277385Y73850D01*
X278470D01*
X279555Y73433D01*
X280485Y72392D01*
G01X288390Y73850D02*
X292110D01*
G01X290250D02*
Y61350D01*
G01X288390D02*
X292110D01*
G01X299705Y73850D02*
X305595D01*
X299705Y61350D01*
X305595D01*
G01X318150D02*
X311950D01*
Y73850D01*
X318150D01*
G01X315670Y67808D02*
X311950D01*
G01X277850Y36350D02*
Y48850D01*
X275990Y46350D01*
G01Y36350D02*
X279710D01*
G01X290250Y48850D02*
X289010Y48433D01*
X288080Y47392D01*
X287460Y46142D01*
X286995Y44475D01*
X286840Y42600D01*
X286995Y40725D01*
X287460Y39058D01*
X288080Y37808D01*
X289010Y36767D01*
X290250Y36350D01*
X291490Y36767D01*
X292420Y37808D01*
X293040Y39058D01*
X293505Y40725D01*
X293660Y42600D01*
X293505Y44475D01*
X293040Y46142D01*
X292420Y47392D01*
X291490Y48433D01*
X290250Y48850D01*
G01X302650Y35933D02*
X302340Y36142D01*
Y36558D01*
X302650Y36767D01*
X302960Y36558D01*
Y36142D01*
X302650Y35933D01*
G01X315050Y48850D02*
X313810Y48433D01*
X312880Y47392D01*
X312260Y46142D01*
X311795Y44475D01*
X311640Y42600D01*
X311795Y40725D01*
X312260Y39058D01*
X312880Y37808D01*
X313810Y36767D01*
X315050Y36350D01*
X316290Y36767D01*
X317220Y37808D01*
X317840Y39058D01*
X318305Y40725D01*
X318460Y42600D01*
X318305Y44475D01*
X317840Y46142D01*
X317220Y47392D01*
X316290Y48433D01*
X315050Y48850D01*
G01X420450Y11350D02*
Y23850D01*
X424170D01*
X425410Y23225D01*
X426340Y21767D01*
X426650Y20100D01*
X426340Y18433D01*
X425565Y17183D01*
X424170Y16558D01*
X420450D01*
G01X432850Y23850D02*
Y11350D01*
X439050D01*
G01X444475D02*
X448350Y23850D01*
X452225Y11350D01*
G01X450830Y15725D02*
X445870D01*
G01X460750Y23850D02*
Y11350D01*
G01X457185Y23850D02*
X464315D01*
G01X476250Y11350D02*
X470050D01*
Y23850D01*
X476250D01*
G01X473770Y17808D02*
X470050D01*
G01X482140Y11350D02*
Y23850D01*
X485240D01*
X486480Y23225D01*
X487410Y22392D01*
X488185Y21142D01*
X488805Y19683D01*
X488960Y17600D01*
X488805Y15517D01*
X488185Y14058D01*
X487410Y12808D01*
X486480Y11975D01*
X485240Y11350D01*
X482140D01*
G01X391000Y80100D02*
Y5100D01*
G01X420450Y61350D02*
Y73850D01*
X424170D01*
X425410Y73225D01*
X426340Y71767D01*
X426650Y70100D01*
X426340Y68433D01*
X425565Y67183D01*
X424170Y66558D01*
X420450D01*
G01X432850Y73850D02*
Y61350D01*
X439050D01*
G01X444475D02*
X448350Y73850D01*
X452225Y61350D01*
G01X450830Y65725D02*
X445870D01*
G01X460750Y73850D02*
Y61350D01*
G01X457185Y73850D02*
X464315D01*
G01X476250Y61350D02*
X470050D01*
Y73850D01*
X476250D01*
G01X473770Y67808D02*
X470050D01*
G01X482140Y61350D02*
Y73850D01*
X485240D01*
X486480Y73225D01*
X487410Y72392D01*
X488185Y71142D01*
X488805Y69683D01*
X488960Y67600D01*
X488805Y65517D01*
X488185Y64058D01*
X487410Y62808D01*
X486480Y61975D01*
X485240Y61350D01*
X482140D01*
G01X420450Y36350D02*
Y48850D01*
X424170D01*
X425410Y48225D01*
X426340Y46767D01*
X426650Y45100D01*
X426340Y43433D01*
X425565Y42183D01*
X424170Y41558D01*
X420450D01*
G01X432850Y48850D02*
Y36350D01*
X439050D01*
G01X444475D02*
X448350Y48850D01*
X452225Y36350D01*
G01X450830Y40725D02*
X445870D01*
G01X460750Y48850D02*
Y36350D01*
G01X457185Y48850D02*
X464315D01*
G01X476250Y36350D02*
X470050D01*
Y48850D01*
X476250D01*
G01X473770Y42808D02*
X470050D01*
G01X482140Y36350D02*
Y48850D01*
X485240D01*
X486480Y48225D01*
X487410Y47392D01*
X488185Y46142D01*
X488805Y44683D01*
X488960Y42600D01*
X488805Y40517D01*
X488185Y39058D01*
X487410Y37808D01*
X486480Y36975D01*
X485240Y36350D01*
X482140D01*
G01X558710Y11350D02*
Y23850D01*
X552975Y14892D01*
X560725D01*
G01X518100Y80100D02*
Y5100D01*
G01X544450Y61350D02*
X543210Y61558D01*
X542125Y62391D01*
X541195Y63642D01*
X540575Y65100D01*
X540265Y66767D01*
Y68433D01*
X540575Y70100D01*
X541195Y71558D01*
X542125Y72808D01*
X543210Y73642D01*
X544450Y73850D01*
X545690Y73642D01*
X546775Y72808D01*
X547705Y71558D01*
X548325Y70100D01*
X548635Y68433D01*
Y66767D01*
X548325Y65100D01*
X547705Y63642D01*
X546775Y62391D01*
X545690Y61558D01*
X544450Y61350D01*
G01X545690Y64683D02*
X547550Y61350D01*
G01X556850Y73850D02*
Y61350D01*
G01X553285Y73850D02*
X560415D01*
G01X569250Y61350D02*
Y66975D01*
X566150Y73850D01*
G01X572350D02*
X569250Y66975D01*
G01X544450Y36350D02*
Y48850D01*
X542590Y46350D01*
G01Y36350D02*
X546310D01*
G01X558710D02*
Y48850D01*
X552975Y39892D01*
X560725D01*
G01X566305Y46767D02*
X567235Y48016D01*
X568320Y48642D01*
X569560Y48850D01*
X571110Y48433D01*
X572195Y47392D01*
X572505Y46142D01*
X572350Y44891D01*
X571730Y43850D01*
X568630Y41767D01*
X567235Y40308D01*
X566305Y38225D01*
X565995Y36350D01*
X572505D01*
G01X0Y0D02*
X100000D01*
Y130000D01*
X0D01*
Y0D01*
M02*
