G04 ================== begin FILE IDENTIFICATION RECORD ==================*
G04 Layout Name:  C:/Users/abcd/Documents/GitHub/sophum_esc_v2/PCB/sophum_esc_v2.brd*
G04 Film Name:    GND03*
G04 File Format:  Gerber RS274X*
G04 File Origin:  Cadence Allegro 16.6-2015-S066*
G04 Origin Date:  Sat Jan 11 17:17:42 2020*
G04 *
G04 Layer:  BOARD GEOMETRY/OUTLINE*
G04 Layer:  ETCH/GND03*
G04 Layer:  PIN/GND03*
G04 Layer:  VIA CLASS/GND03*
G04 *
G04 Offset:    (0.00 0.00)*
G04 Mirror:    No*
G04 Mode:      Positive*
G04 Rotation:  0*
G04 FullContactRelief:  No*
G04 UndefLineWidth:     6.00*
G04 ================== end FILE IDENTIFICATION RECORD ====================*
%FSLAX25Y25*MOIN*%
%IR0*IPPOS*OFA0.00000B0.00000*MIA0B0*SFA1.00000B1.00000*%
%ADD10C,.02165*%
%ADD11C,.06299*%
%ADD12R,.06299X.06299*%
%ADD13C,.025*%
%ADD14C,.006*%
%ADD17C,.07302*%
%ADD15C,.03168*%
%ADD16R,.07302X.07302*%
G75*
%LPD*%
G75*
G36*
G01X98996Y128996D02*
Y1004D01*
X88288D01*
G02X87918Y1554I1J400D01*
G03X87413Y3407I-1468J595D01*
G02Y4043I243J318D01*
G03Y6557I-963J1257D01*
G02Y7193I243J318D01*
G03Y9707I-963J1257D01*
G02Y10343I243J318D01*
G03X85193Y12563I-963J1257D01*
G02X84557I-318J243D01*
G03X82043I-1257J-963D01*
G02X81407I-318J243D01*
G03X78893I-1257J-963D01*
G02X78257I-318J243D01*
G03X76037Y10343I-1257J-963D01*
G02Y9707I-243J-318D01*
G03Y7193I963J-1257D01*
G02Y6557I-243J-318D01*
G03Y4043I963J-1257D01*
G02Y3407I-243J-318D01*
G03X75532Y1554I963J-1258D01*
G02X75162Y1004I-371J-150D01*
G01X63993D01*
G02X63642Y1595I1J400D01*
G03X63213Y3607I-1392J755D01*
G02Y4243I243J318D01*
G03Y6757I-963J1257D01*
G02Y7393I243J318D01*
G03Y9907I-963J1257D01*
G02Y10543I243J318D01*
G03X60993Y12763I-963J1257D01*
G02X60357I-318J243D01*
G03X57843I-1257J-963D01*
G02X57207I-318J243D01*
G03X54693I-1257J-963D01*
G02X54057I-318J243D01*
G03X51837Y10543I-1257J-963D01*
G02Y9907I-243J-318D01*
G03Y7393I963J-1257D01*
G02Y6757I-243J-318D01*
G03Y4243I963J-1257D01*
G02Y3607I-243J-318D01*
G03X51408Y1595I963J-1257D01*
G02X51057Y1004I-352J-191D01*
G01X34744D01*
G02X34383Y1575I1J400D01*
G03X33913Y3507I-1433J675D01*
G02Y4143I243J318D01*
G03Y6657I-963J1257D01*
G02Y7293I243J318D01*
G03Y9807I-963J1257D01*
G02Y10443I243J318D01*
G03X31693Y12663I-963J1257D01*
G02X31057I-318J243D01*
G03X28543I-1257J-963D01*
G02X27907I-318J243D01*
G03X25393I-1257J-963D01*
G02X24757I-318J243D01*
G03X22537Y10443I-1257J-963D01*
G02Y9807I-243J-318D01*
G03Y7293I963J-1257D01*
G02Y6657I-243J-318D01*
G03Y4143I963J-1257D01*
G02Y3507I-243J-318D01*
G03X22067Y1575I963J-1257D01*
G02X21706Y1004I-362J-171D01*
G01X1004D01*
Y128996D01*
X11430D01*
G02X11787Y128415I0J-400D01*
G03X12237Y126443I1413J-715D01*
G02Y125807I-243J-318D01*
G03Y123293I963J-1257D01*
G02Y122657I-243J-318D01*
G03Y120143I963J-1257D01*
G02Y119507I-243J-318D01*
G03X14457Y117287I963J-1257D01*
G02X15093I318J-243D01*
G03X17607I1257J963D01*
G02X18243I318J-243D01*
G03X20757I1257J963D01*
G02X21393I318J-243D01*
G03X23613Y119507I1257J963D01*
G02Y120143I243J318D01*
G03Y122657I-963J1257D01*
G02Y123293I243J318D01*
G03Y125807I-963J1257D01*
G02Y126443I243J318D01*
G03X24063Y128415I-963J1257D01*
G02X24420Y128996I357J181D01*
G01X98996D01*
G37*
%LPC*%
G75*
G54D17*
X18400Y75900D03*
Y65900D03*
Y55900D03*
G54D15*
X46249Y27139D03*
X32600Y113900D03*
X37800Y126900D03*
X41737D03*
Y122963D03*
X37800D03*
Y119026D03*
X41737D03*
X45000Y93300D03*
X35014Y51014D03*
X51514Y58286D03*
X68616Y84040D03*
X82677Y51014D03*
X69849Y27039D03*
X40500Y93300D03*
X58534D03*
X81200D03*
X49500D03*
X67610D03*
X76700D03*
X59714Y51014D03*
X37700Y32900D03*
X63072Y84049D03*
X72553Y61853D03*
X62000Y32900D03*
X65700Y59200D03*
X85600Y32900D03*
X86386Y58286D03*
X38586Y58386D03*
X39651Y19449D03*
X56300Y81400D03*
G54D16*
X18400Y85900D03*
%LPD*%
G75*
G54D10*
X26650Y8550D03*
X23500Y5400D03*
X26650D03*
X29800D03*
Y2250D03*
X26650D03*
X23500D03*
X29800Y8550D03*
Y11700D03*
X26650D03*
X23500D03*
Y8550D03*
X25900Y59600D03*
X13200Y118250D03*
X16350D03*
X19500D03*
X22650D03*
Y121400D03*
X19500D03*
X16350D03*
X13200D03*
Y124550D03*
X16350D03*
X19500D03*
X22650D03*
Y127700D03*
X13200D03*
X16350D03*
X19500D03*
X46000Y21750D03*
X39700Y28050D03*
X70700Y19400D03*
Y24400D03*
X42850Y21750D03*
Y24900D03*
X39700D03*
X46000Y18600D03*
X70700Y22000D03*
X32950Y11700D03*
Y8550D03*
Y5400D03*
Y2250D03*
X52800Y8650D03*
X62250Y11800D03*
Y5500D03*
X59100Y11800D03*
X52800D03*
Y2350D03*
X55950Y8650D03*
X59100D03*
X62250D03*
X55950Y2350D03*
X62250D03*
X59100D03*
Y5500D03*
X55950D03*
X52800D03*
X55950Y11800D03*
X86450Y5300D03*
X80150Y11600D03*
X77000Y8450D03*
Y5300D03*
X80150Y8450D03*
X83300D03*
Y11600D03*
X77000D03*
X86450Y8450D03*
X77000Y2150D03*
X80150D03*
X83300D03*
Y5300D03*
X80150D03*
X86450Y2150D03*
Y11600D03*
X69849Y27039D03*
X85600Y32900D03*
X37700D03*
X39651Y19449D03*
X46249Y27139D03*
X62000Y32900D03*
X61837Y119126D03*
X57900D03*
Y123063D03*
X61837D03*
X86750Y115000D03*
X77300D03*
X72100Y74300D03*
X77300Y121300D03*
X80450D03*
X83600D03*
Y118150D03*
X80450D03*
X77300D03*
X86750D03*
X72100Y69300D03*
X86750Y121300D03*
X69600Y71800D03*
X86750Y111850D03*
X51514Y61514D03*
X83600Y115000D03*
X72162Y93300D03*
X63072D03*
X53996D03*
X31900Y106900D03*
X67100Y74300D03*
X80450Y115000D03*
X67100Y69300D03*
X76700Y93300D03*
X67610D03*
X58534D03*
X40500D03*
X56300Y81400D03*
X49500Y93300D03*
X68616Y84040D03*
X32600Y113900D03*
X86386Y58286D03*
X82677Y51014D03*
X35014D03*
X38586Y58386D03*
X51514Y58286D03*
X59714Y51014D03*
X63072Y84049D03*
X45000Y93300D03*
X65700Y59200D03*
X72553Y61853D03*
X41737Y119026D03*
X37800D03*
Y122963D03*
X41737D03*
X81200Y93300D03*
X57900Y127000D03*
X77300Y127600D03*
X80450D03*
X83600D03*
Y124450D03*
X80450D03*
X77300D03*
X61837Y127000D03*
X86750Y127600D03*
Y124450D03*
X41737Y126900D03*
X37800D03*
G54D11*
X18400Y55900D03*
Y65900D03*
Y75900D03*
G54D12*
Y85900D03*
G54D13*
G01D02*
X22252D01*
G01X18400D02*
Y82048D01*
G01Y85900D02*
X14548D01*
G01X18400D02*
Y89752D01*
G54D14*
G01X0Y0D02*
X100000D01*
Y130000D01*
X0D01*
Y0D01*
M02*
