G04 ================== begin FILE IDENTIFICATION RECORD ==================*
G04 Layout Name:  C:/Users/abcd/Documents/GitHub/sophum_esc_v2/PCB/sophum_esc_v2.brd*
G04 Film Name:    SOLDBOT*
G04 File Format:  Gerber RS274X*
G04 File Origin:  Cadence Allegro 16.6-2015-S066*
G04 Origin Date:  Sat Jan 11 17:17:42 2020*
G04 *
G04 Layer:  VIA CLASS/SOLDERMASK_BOTTOM*
G04 Layer:  PIN/SOLDERMASK_BOTTOM*
G04 Layer:  PACKAGE GEOMETRY/SOLDERMASK_BOTTOM*
G04 Layer:  BOARD GEOMETRY/SOLDERMASK_BOTTOM*
G04 Layer:  BOARD GEOMETRY/OUTLINE*
G04 *
G04 Offset:    (0.00 0.00)*
G04 Mirror:    No*
G04 Mode:      Positive*
G04 Rotation:  0*
G04 FullContactRelief:  No*
G04 UndefLineWidth:     6.00*
G04 ================== end FILE IDENTIFICATION RECORD ====================*
%FSLAX25Y25*MOIN*%
%IR0*IPPOS*OFA0.00000B0.00000*MIA0B0*SFA1.00000B1.00000*%
%ADD18R,.02402X.02402*%
%ADD13C,.06693*%
%AMMACRO10*
4,1,28,.03248,.05217,
.03248,.06713,
.00768,.06713,
.00768,.05217,
-.03701,.05217,
-.03701,.0502,
-.04882,.0502,
-.04882,.02657,
-.03701,.02657,
-.03701,.02461,
-.04882,.02461,
-.04882,.00098,
-.03701,.00098,
-.03701,-.00098,
-.04882,-.00098,
-.04882,-.02461,
-.03701,-.02461,
-.03701,-.02657,
-.04882,-.02657,
-.04882,-.0502,
-.03701,-.0502,
-.03701,-.05217,
.00768,-.05217,
.00768,-.06713,
.03248,-.06713,
.03248,-.05217,
.04882,-.05217,
.04882,.05217,
.03248,.05217,
0.0*
%
%ADD10MACRO10*%
%ADD14R,.06693X.06693*%
%ADD12R,.01772X.02362*%
%ADD16R,.02362X.01772*%
%AMMACRO15*
4,1,28,-.03248,-.05217,
-.03248,-.06713,
-.00768,-.06713,
-.00768,-.05217,
.03701,-.05217,
.03701,-.0502,
.04882,-.0502,
.04882,-.02657,
.03701,-.02657,
.03701,-.02461,
.04882,-.02461,
.04882,-.00098,
.03701,-.00098,
.03701,.00098,
.04882,.00098,
.04882,.02461,
.03701,.02461,
.03701,.02657,
.04882,.02657,
.04882,.0502,
.03701,.0502,
.03701,.05217,
-.00768,.05217,
-.00768,.06713,
-.03248,.06713,
-.03248,.05217,
-.04882,.05217,
-.04882,-.05217,
-.03248,-.05217,
0.0*
%
%ADD15MACRO15*%
%AMMACRO11*
4,1,28,-.05217,.03248,
-.06713,.03248,
-.06713,.00768,
-.05217,.00768,
-.05217,-.03701,
-.0502,-.03701,
-.0502,-.04882,
-.02657,-.04882,
-.02657,-.03701,
-.02461,-.03701,
-.02461,-.04882,
-.00098,-.04882,
-.00098,-.03701,
.00098,-.03701,
.00098,-.04882,
.02461,-.04882,
.02461,-.03701,
.02657,-.03701,
.02657,-.04882,
.0502,-.04882,
.0502,-.03701,
.05217,-.03701,
.05217,.00768,
.06713,.00768,
.06713,.03248,
.05217,.03248,
.05217,.04882,
-.05217,.04882,
-.05217,.03248,
0.0*
%
%ADD11MACRO11*%
%ADD17R,.07402X.05394*%
%ADD19C,.006*%
G75*
%LPD*%
G75*
G54D10*
X28792Y23288D03*
G54D11*
X30800Y40292D03*
X78700Y40204D03*
X55100Y40304D03*
G54D12*
X26961Y47812D03*
X82539Y47724D03*
X79980D03*
X77420D03*
X74861D03*
X34639Y47812D03*
X32080D03*
X29520D03*
X58939Y47824D03*
X56380D03*
X53820D03*
X51261D03*
G54D13*
X18400Y55900D03*
Y65900D03*
Y75900D03*
G54D14*
Y85900D03*
G54D15*
X80708Y23200D03*
X57108Y23300D03*
G54D16*
X73188Y27039D03*
Y24480D03*
Y21920D03*
Y19361D03*
X49588Y27139D03*
Y24580D03*
Y22020D03*
Y19461D03*
X36312Y19449D03*
Y22008D03*
Y24568D03*
Y27127D03*
G54D17*
X79762Y110684D03*
Y98716D03*
X69100Y110684D03*
Y98716D03*
X47776Y110684D03*
Y98716D03*
X58438Y110684D03*
Y98716D03*
G54D18*
X35014Y53800D03*
X31786D03*
X59714D03*
X56486D03*
X82677D03*
X79449D03*
G54D19*
G01X0Y0D02*
X100000D01*
Y130000D01*
X0D01*
Y0D01*
M02*
