G04 ================== begin FILE IDENTIFICATION RECORD ==================*
G04 Layout Name:  C:/Users/abcd/Documents/GitHub/sophum_esc_v2/PCB/sophum_esc_v2.brd*
G04 Film Name:    SOLDTOP*
G04 File Format:  Gerber RS274X*
G04 File Origin:  Cadence Allegro 16.6-2015-S066*
G04 Origin Date:  Sat Jan 11 17:17:42 2020*
G04 *
G04 Layer:  VIA CLASS/SOLDERMASK_TOP*
G04 Layer:  PIN/SOLDERMASK_TOP*
G04 Layer:  PACKAGE GEOMETRY/SOLDERMASK_TOP*
G04 Layer:  BOARD GEOMETRY/SOLDERMASK_TOP*
G04 Layer:  BOARD GEOMETRY/OUTLINE*
G04 *
G04 Offset:    (0.00 0.00)*
G04 Mirror:    No*
G04 Mode:      Positive*
G04 Rotation:  0*
G04 FullContactRelief:  No*
G04 UndefLineWidth:     6.00*
G04 ================== end FILE IDENTIFICATION RECORD ====================*
%FSLAX25Y25*MOIN*%
%IR0*IPPOS*OFA0.00000B0.00000*MIA0B0*SFA1.00000B1.00000*%
%ADD18R,.02402X.02402*%
%ADD12C,.06693*%
%ADD16R,.01575X.01575*%
%ADD14R,.0748X.0748*%
%ADD13R,.06693X.06693*%
%ADD10R,.02953X.02362*%
%ADD11R,.04724X.02756*%
%ADD15R,.01575X.03937*%
%ADD17R,.03937X.01575*%
%ADD19R,.04882X.05394*%
%ADD20C,.006*%
G75*
%LPD*%
G75*
G36*
G01X23300Y1300D02*
X33200D01*
G03X34200Y2300I0J1000D01*
G01Y11900D01*
G03X33200Y12900I-1000J0D01*
G01X23300D01*
G03X22300Y11900I0J-1000D01*
G01Y2300D01*
G03X23300Y1300I1000J0D01*
G37*
G36*
G01X13000Y117000D02*
X22900D01*
G03X23900Y118000I0J1000D01*
G01Y127600D01*
G03X22900Y128600I-1000J0D01*
G01X13000D01*
G03X12000Y127600I0J-1000D01*
G01Y118000D01*
G03X13000Y117000I1000J0D01*
G37*
G36*
G01X52400Y1400D02*
X62300D01*
G03X63300Y2400I0J1000D01*
G01Y12000D01*
G03X62300Y13000I-1000J0D01*
G01X52400D01*
G03X51400Y12000I0J-1000D01*
G01Y2400D01*
G03X52400Y1400I1000J0D01*
G37*
G36*
G01X76800Y1000D02*
X86700D01*
G03X87700Y2000I0J1000D01*
G01Y11600D01*
G03X86700Y12600I-1000J0D01*
G01X76800D01*
G03X75800Y11600I0J-1000D01*
G01Y2000D01*
G03X76800Y1000I1000J0D01*
G37*
G36*
G01X37400Y117400D02*
X42300D01*
G03X43300Y118400I0J1000D01*
G01Y127600D01*
G03X42300Y128600I-1000J0D01*
G01X37400D01*
G03X36400Y127600I0J-1000D01*
G01Y118400D01*
G03X37400Y117400I1000J0D01*
G37*
G36*
G01X57400D02*
X62300D01*
G03X63300Y118400I0J1000D01*
G01Y127600D01*
G03X62300Y128600I-1000J0D01*
G01X57400D01*
G03X56400Y127600I0J-1000D01*
G01Y118400D01*
G03X57400Y117400I1000J0D01*
G37*
G36*
G01X77100Y117000D02*
X87000D01*
G03X88000Y118000I0J1000D01*
G01Y127600D01*
G03X87000Y128600I-1000J0D01*
G01X77100D01*
G03X76100Y127600I0J-1000D01*
G01Y118000D01*
G03X77100Y117000I1000J0D01*
G37*
G54D10*
X28449Y30341D03*
Y35459D03*
X76349Y30341D03*
X52749D03*
X82451Y32900D03*
X76349Y35459D03*
X34551Y32900D03*
X58851D03*
X52749Y35459D03*
G54D20*
G01X0Y0D02*
X100000D01*
Y130000D01*
X0D01*
Y0D01*
G54D11*
X26982Y103160D03*
Y106900D03*
Y110640D03*
X37218D03*
Y103160D03*
G54D12*
X18400Y55900D03*
Y65900D03*
Y75900D03*
G54D13*
Y85900D03*
G54D14*
X69600Y71800D03*
G54D15*
X66647Y77902D03*
X68616D03*
X70584D03*
X72553D03*
Y65698D03*
X70584D03*
X68616D03*
X66647D03*
G54D16*
X74521Y76721D03*
Y66879D03*
X64679D03*
Y76721D03*
G54D17*
X75702Y74753D03*
Y72784D03*
Y70816D03*
Y68847D03*
X63498D03*
Y70816D03*
Y72784D03*
Y74753D03*
G54D18*
X65714Y103100D03*
X62486D03*
X35100Y68886D03*
Y72114D03*
X30600Y76586D03*
Y79814D03*
X81200Y90814D03*
Y87586D03*
X45000D03*
Y90814D03*
X30600Y68886D03*
Y72114D03*
X30400Y61614D03*
Y58386D03*
X55200Y61514D03*
Y58286D03*
X78162Y61514D03*
Y58286D03*
X40500Y87586D03*
Y90814D03*
X34900Y58386D03*
Y61614D03*
X59700Y58286D03*
Y61514D03*
X82700Y58286D03*
Y61514D03*
X76700Y87586D03*
Y90814D03*
X67610Y87586D03*
Y90814D03*
X58534Y87586D03*
Y90814D03*
X85700D03*
Y87586D03*
X53996Y90814D03*
Y87586D03*
X63072Y90814D03*
Y87586D03*
X72162Y90814D03*
Y87586D03*
X49500D03*
Y90814D03*
G54D19*
X70107Y110700D03*
X63493D03*
M02*
