M48
INCH,TZ
T01C.01
T02C.03937
;LEADER: 12 
;HEADER: 
;CODE  : ASCII 
;FILE  : sophum_esc_v2-1-4.drl for board #Taaaafh17584.tmp ... layers TOP and BOTTOM
;T01 Holesize 1. = 10.000000 Tolerance = +0.000000/-0.000000 PLATED MILS Quantity = 142
;T02 Holesize 2. = 39.370000 Tolerance = +0.000000/-0.000000 PLATED MILS Quantity = 4
%
G90
T01
X23500Y2250
R03Y3150
X26650Y2250
R03Y3150
X29800Y2250
R03Y3150
X32950Y2250
R03Y3150
X39651Y19449
X46000Y18600
X52800Y2350
R03Y3150
X55950Y2350
R03Y3150
X59100Y2350
R03Y3150
X62250Y2350
R03Y3150
X70700Y19400
X77000Y2150
X77000Y5300
R02Y3150
X80150Y2150
R03Y3150
X83300Y2150
R03Y3150
X86450Y2150
R03Y3150
X85600Y32900
X70700Y24400
X70700Y22000
X69849Y27039
X62000Y32900
X46249Y27139
X46000Y21750
X42850Y24900
X42850Y21750
X39700Y28050
X39700Y24900
X37700Y32900
X25900Y59600
X35014Y51014
X38586Y58386
X51514Y58286
X59714Y51014
X65700Y59200
X82677Y51014
X86386Y58286
X72553Y61853
X72100Y74300
X72100Y69300
X69600Y71800
X67100Y74300
X67100Y69300
X51514Y61514
X40500Y93300
X45000Y93300
X49500Y93300
X53996Y93300
X56300Y81400
X58534Y93300
X63072Y84049
X63072Y93300
X67610Y93300
X68616Y84040
X72162Y93300
X76700Y93300
X81200Y93300
X86750Y118150
R02Y-3150
X83600Y118150
X83600Y115000
X80450Y118150
X80450Y115000
X77300Y118150
X77300Y115000
X61837Y119126
X57900Y119126
X41737Y119026
X37800Y119026
X32600Y113900
X31900Y106900
X22650Y118250
R03X-3150
X13200Y121400
R02Y3150
X16350Y121400
R02Y3150
X19500Y121400
R02Y3150
X22650Y121400
R02Y3150
X37800Y122963
X37800Y126900
X41737Y122963
X41737Y126900
X57900Y123063
X57900Y127000
X61837Y123063
X61837Y127000
X77300Y121300
R02Y3150
X80450Y121300
R02Y3150
X83600Y121300
R02Y3150
X86750Y121300
R02Y3150
T02
X18400Y55900
R03Y10000
M30
