G04 ================== begin FILE IDENTIFICATION RECORD ==================*
G04 Layout Name:  C:/Users/abcd/Documents/GitHub/sophum_esc_v2/PCB/sophum_esc_v2.brd*
G04 Film Name:    TOP*
G04 File Format:  Gerber RS274X*
G04 File Origin:  Cadence Allegro 16.6-2015-S066*
G04 Origin Date:  Sat Jan 11 17:17:42 2020*
G04 *
G04 Layer:  BOARD GEOMETRY/OUTLINE*
G04 Layer:  ETCH/TOP*
G04 Layer:  PIN/TOP*
G04 Layer:  VIA CLASS/TOP*
G04 *
G04 Offset:    (0.00 0.00)*
G04 Mirror:    No*
G04 Mode:      Positive*
G04 Rotation:  0*
G04 FullContactRelief:  No*
G04 UndefLineWidth:     6.00*
G04 ================== end FILE IDENTIFICATION RECORD ====================*
%FSLAX25Y25*MOIN*%
%IR0*IPPOS*OFA0.00000B0.00000*MIA0B0*SFA1.00000B1.00000*%
%ADD11C,.02165*%
%ADD19R,.02008X.02008*%
%ADD17R,.01181X.01181*%
%ADD13C,.06299*%
%ADD15R,.07087X.07087*%
%ADD14R,.06299X.06299*%
%ADD12R,.04331X.02362*%
%ADD16R,.01181X.03543*%
%ADD18R,.03543X.01181*%
%ADD20R,.04488X.05*%
%ADD10R,.02559X.01969*%
%ADD21C,.02*%
%ADD22C,.012*%
%ADD23C,.015*%
%ADD24C,.025*%
%ADD25C,.006*%
%ADD26C,.03168*%
G75*
%LPD*%
G75*
G36*
G01X26300Y30400D02*
G02X27300Y31400I1000J0D01*
G01X34493D01*
G03X34551Y31398I81J1499D01*
G01X37195D01*
X37225Y31389D01*
G03X38180Y31391I474J1511D01*
G01X38210Y31400D01*
X58793D01*
G03X58851Y31398I81J1499D01*
G01X61495D01*
X61525Y31389D01*
G03X62480Y31391I474J1511D01*
G01X62510Y31400D01*
X77400D01*
G02X78400Y30400I0J-1000D01*
G01Y18700D01*
G02X77400Y17700I-1000J0D01*
G01X41105D01*
G02X40812Y18372I1J400D01*
G03X38490I-1161J1077D01*
G02X38197Y17700I-294J-272D01*
G01X27300D01*
G02X26300Y18700I0J1000D01*
G01Y30400D01*
G37*
G36*
G01X33200Y1300D02*
X23300D01*
G02X22300Y2300I0J1000D01*
G01Y11900D01*
G02X23300Y12900I1000J0D01*
G01X33200D01*
G02X34200Y11900I0J-1000D01*
G01Y2300D01*
G02X33200Y1300I-1000J0D01*
G37*
G36*
G01X12000Y127600D02*
G02X13000Y128600I1000J0D01*
G01X22900D01*
G02X23900Y127600I0J-1000D01*
G01Y102700D01*
G02X22900Y101700I-1000J0D01*
G01X13000D01*
G02X12000Y102700I0J1000D01*
G01Y127600D01*
G37*
G36*
G01X62300Y1400D02*
X52400D01*
G02X51400Y2400I0J1000D01*
G01Y12000D01*
G02X52400Y13000I1000J0D01*
G01X62300D01*
G02X63300Y12000I0J-1000D01*
G01Y2400D01*
G02X62300Y1400I-1000J0D01*
G37*
G36*
G01X86700Y1000D02*
X76800D01*
G02X75800Y2000I0J1000D01*
G01Y11600D01*
G02X76800Y12600I1000J0D01*
G01X86700D01*
G02X87700Y11600I0J-1000D01*
G01Y2000D01*
G02X86700Y1000I-1000J0D01*
G37*
G36*
G01X87000Y128600D02*
G02X88000Y127600I0J-1000D01*
G01Y101800D01*
G02X87000Y100800I-1000J0D01*
G01X65200D01*
X64700Y101300D01*
Y105200D01*
X65300Y105800D01*
X66600D01*
X67400Y106600D01*
Y113300D01*
X67700Y113600D01*
X73600D01*
X76100Y116100D01*
Y127600D01*
G02X77100Y128600I1000J0D01*
G01X87000D01*
G37*
G36*
G01X62300Y117400D02*
X57400D01*
G02X56400Y118400I0J1000D01*
G01Y127600D01*
G02X57400Y128600I1000J0D01*
G01X62300D01*
G02X63300Y127600I0J-1000D01*
G01Y118400D01*
G02X62300Y117400I-1000J0D01*
G37*
G36*
G01X42300D02*
X37400D01*
G02X36400Y118400I0J1000D01*
G01Y127600D01*
G02X37400Y128600I1000J0D01*
G01X42300D01*
G02X43300Y127600I0J-1000D01*
G01Y118400D01*
G02X42300Y117400I-1000J0D01*
G37*
%LPC*%
G75*
G54D26*
X69849Y27039D03*
X46249Y27139D03*
%LPD*%
G75*
G54D10*
X28449Y30341D03*
Y35459D03*
X76349Y30341D03*
X52749D03*
X82451Y32900D03*
X76349Y35459D03*
X34551Y32900D03*
X58851D03*
X52749Y35459D03*
G54D20*
X70107Y110700D03*
X63493D03*
G54D11*
X26650Y8550D03*
X23500Y5400D03*
X26650D03*
X29800D03*
Y2250D03*
X26650D03*
X23500D03*
X29800Y8550D03*
Y11700D03*
X26650D03*
X23500D03*
Y8550D03*
X25900Y59600D03*
X13200Y118250D03*
X16350D03*
X19500D03*
X22650D03*
Y121400D03*
X19500D03*
X16350D03*
X13200D03*
Y124550D03*
X16350D03*
X19500D03*
X22650D03*
Y127700D03*
X13200D03*
X16350D03*
X19500D03*
X46000Y21750D03*
X39700Y28050D03*
X70700Y19400D03*
Y24400D03*
X42850Y21750D03*
Y24900D03*
X39700D03*
X46000Y18600D03*
X70700Y22000D03*
X32950Y11700D03*
Y8550D03*
Y5400D03*
Y2250D03*
X52800Y8650D03*
X62250Y11800D03*
Y5500D03*
X59100Y11800D03*
X52800D03*
Y2350D03*
X55950Y8650D03*
X59100D03*
X62250D03*
X55950Y2350D03*
X62250D03*
X59100D03*
Y5500D03*
X55950D03*
X52800D03*
X55950Y11800D03*
X86450Y5300D03*
X80150Y11600D03*
X77000Y8450D03*
Y5300D03*
X80150Y8450D03*
X83300D03*
Y11600D03*
X77000D03*
X86450Y8450D03*
X77000Y2150D03*
X80150D03*
X83300D03*
Y5300D03*
X80150D03*
X86450Y2150D03*
Y11600D03*
X69849Y27039D03*
X85600Y32900D03*
X37700D03*
X39651Y19449D03*
X46249Y27139D03*
X62000Y32900D03*
X61837Y119126D03*
X57900D03*
Y123063D03*
X61837D03*
X86750Y115000D03*
X77300D03*
X72100Y74300D03*
X77300Y121300D03*
X80450D03*
X83600D03*
Y118150D03*
X80450D03*
X77300D03*
X86750D03*
X72100Y69300D03*
X86750Y121300D03*
X69600Y71800D03*
X86750Y111850D03*
X51514Y61514D03*
X83600Y115000D03*
X72162Y93300D03*
X63072D03*
X53996D03*
X31900Y106900D03*
X67100Y74300D03*
X80450Y115000D03*
X67100Y69300D03*
X76700Y93300D03*
X67610D03*
X58534D03*
X40500D03*
X56300Y81400D03*
X49500Y93300D03*
X68616Y84040D03*
X32600Y113900D03*
X86386Y58286D03*
X82677Y51014D03*
X35014D03*
X38586Y58386D03*
X51514Y58286D03*
X59714Y51014D03*
X63072Y84049D03*
X45000Y93300D03*
X65700Y59200D03*
X72553Y61853D03*
X41737Y119026D03*
X37800D03*
Y122963D03*
X41737D03*
X81200Y93300D03*
X57900Y127000D03*
X77300Y127600D03*
X80450D03*
X83600D03*
Y124450D03*
X80450D03*
X77300D03*
X61837Y127000D03*
X86750Y127600D03*
Y124450D03*
X41737Y126900D03*
X37800D03*
G54D21*
G01X25900Y59600D02*
X27914Y61614D01*
X30400D01*
G01X18400Y85900D02*
X24486Y79814D01*
X30600D01*
G01Y72114D02*
X22186D01*
X18400Y75900D01*
G01X30600Y68886D02*
X21386D01*
X18400Y65900D01*
G01X53996Y90814D02*
Y93300D01*
G01X63072Y90814D02*
Y93300D01*
G01X72162Y90814D02*
Y93300D01*
G01X55200Y61514D02*
X51514D01*
G01X35100Y72114D02*
Y77800D01*
X33086Y79814D01*
X30600D01*
G01X76700Y90814D02*
Y93300D01*
G01X67610Y90814D02*
Y93300D01*
G01X58534Y90814D02*
Y93300D01*
G01X45000Y87586D02*
X49500D01*
G01X40500D02*
X45000D01*
G01X40500Y90814D02*
Y93300D01*
G01X53996Y87586D02*
X58534D01*
G01X49500Y90814D02*
Y93300D01*
G01X72162Y87586D02*
X76700D01*
G01X30600Y76586D02*
Y72114D01*
G01X82700Y58286D02*
X86386D01*
G01X82700D02*
X78162D01*
G01X82451Y32900D02*
X85600D01*
G01X34551D02*
X37700D01*
G01X34900Y58386D02*
X38586D01*
G01X30400D02*
X34900D01*
G01X55200Y58286D02*
X51514D01*
G01X59700D02*
X55200D01*
G01X58851Y32900D02*
X62000D01*
G01X45000Y90814D02*
Y93300D01*
G01X63072Y87586D02*
X67610D01*
G01X81200D02*
X85700D01*
G01X81200Y90814D02*
Y93300D01*
G54D12*
X26982Y103160D03*
Y106900D03*
Y110640D03*
X37218D03*
Y103160D03*
G54D22*
G01X64679Y66879D02*
X43179D01*
X40800Y64500D01*
X27000D01*
X18400Y55900D01*
G01X75702Y68847D02*
X72553D01*
X72100Y69300D01*
G01X63498Y72784D02*
X68616D01*
X69600Y71800D01*
G01X75702Y68847D02*
X78574D01*
X79732Y67689D01*
Y63084D01*
X78162Y61514D01*
G01X49500Y87586D02*
X51400Y85686D01*
Y81253D01*
X57900Y74753D01*
X63498D01*
G01X53996Y87586D02*
Y83704D01*
X56300Y81400D01*
G01D02*
X60979Y76721D01*
X64679D01*
G01X72162Y87586D02*
X68616Y84040D01*
G01D02*
Y77902D01*
G01X35100Y68886D02*
X34614D01*
X31386Y72114D01*
X30600D01*
G01X35100Y68886D02*
X38786D01*
X40716Y70816D01*
X63498D01*
G01Y68847D02*
X42047D01*
X39700Y66500D01*
X32700D01*
X30600Y68600D01*
Y68886D01*
G01X63072Y84049D02*
X66647Y80474D01*
Y77902D01*
G01X63072Y87586D02*
Y84049D01*
G01X34900Y61614D02*
X41514D01*
X44500Y64600D01*
X60600D01*
X62600Y62600D01*
X68090D01*
X68616Y63126D01*
Y65698D01*
G01X28449Y35459D02*
X28744D01*
X33085Y39800D01*
X55500D01*
X69400Y53700D01*
Y61505D01*
X70316Y62421D01*
Y62558D01*
X70584Y62826D01*
Y65698D01*
G01X72553D02*
Y61853D01*
G01X52749Y35459D02*
X56159D01*
X75600Y54900D01*
Y61893D01*
X74521Y62972D01*
Y66879D01*
G01X82700Y61514D02*
Y67700D01*
X79584Y70816D01*
X75702D01*
G01Y72784D02*
X81116D01*
X89400Y64500D01*
Y50799D01*
X76349Y37748D01*
Y35459D01*
G01X70584Y77902D02*
Y82284D01*
X73000Y84700D01*
X78314D01*
X81200Y87586D01*
G01X85700Y90814D02*
X87504D01*
X89100Y89218D01*
Y85700D01*
X86200Y82800D01*
X74879D01*
X72553Y80474D01*
Y77902D01*
G54D13*
X18400Y55900D03*
Y65900D03*
Y75900D03*
G54D23*
G01X65700Y59200D02*
X62600D01*
X60286Y61514D01*
X59700D01*
G54D14*
X18400Y85900D03*
G54D24*
G01X26982Y106900D02*
X31900D01*
G01X26982Y103160D02*
X23066D01*
G01X22840Y110640D02*
X26982D01*
G01X23066Y103160D02*
X20900Y105326D01*
Y108700D01*
X22840Y110640D01*
G01X37218D02*
X60389D01*
X60449Y110700D01*
X63493D01*
G01X37218Y110640D02*
X34252D01*
X32600Y112292D01*
Y113900D01*
G01X37218Y103160D02*
X60622D01*
X60682Y103100D01*
X62486D01*
G54D15*
X69600Y71800D03*
G54D25*
G01X0Y0D02*
X100000D01*
Y130000D01*
X0D01*
Y0D01*
G54D16*
X66647Y77902D03*
X68616D03*
X70584D03*
X72553D03*
Y65698D03*
X70584D03*
X68616D03*
X66647D03*
G54D17*
X74521Y76721D03*
Y66879D03*
X64679D03*
Y76721D03*
G54D18*
X75702Y74753D03*
Y72784D03*
Y70816D03*
Y68847D03*
X63498D03*
Y70816D03*
Y72784D03*
Y74753D03*
G54D19*
X65714Y103100D03*
X62486D03*
X35100Y68886D03*
Y72114D03*
X30600Y76586D03*
Y79814D03*
X81200Y90814D03*
Y87586D03*
X45000D03*
Y90814D03*
X30600Y68886D03*
Y72114D03*
X30400Y61614D03*
Y58386D03*
X55200Y61514D03*
Y58286D03*
X78162Y61514D03*
Y58286D03*
X40500Y87586D03*
Y90814D03*
X34900Y58386D03*
Y61614D03*
X59700Y58286D03*
Y61514D03*
X82700Y58286D03*
Y61514D03*
X76700Y87586D03*
Y90814D03*
X67610Y87586D03*
Y90814D03*
X58534Y87586D03*
Y90814D03*
X85700D03*
Y87586D03*
X53996Y90814D03*
Y87586D03*
X63072Y90814D03*
Y87586D03*
X72162Y90814D03*
Y87586D03*
X49500D03*
Y90814D03*
M02*
